{
	"asset":{
		"generator":"Khronos glTF Blender I/O v5.1.20",
		"version":"2.0"
	},
	"scene":0,
	"scenes":[
		{
			"name":"Scene",
			"nodes":[
				24
			]
		}
	],
	"nodes":[
		{
			"mesh":0,
			"name":"pCylinderShape11"
		},
		{
			"children":[
				0
			],
			"name":"pCylinder11",
			"rotation":[
				0.6532815098762512,
				0.27059805393218994,
				-0.27059805393218994,
				0.6532815098762512
			],
			"scale":[
				0.028193380683660507,
				0.028193380683660507,
				0.045381542295217514
			],
			"translation":[
				0,
				0.04521030932664871,
				-1.6091797351837158
			]
		},
		{
			"mesh":1,
			"name":"pPlaneShape73"
		},
		{
			"children":[
				2
			],
			"name":"pPlane73",
			"rotation":[
				0.7071068286895752,
				0,
				0,
				0.7071068286895752
			],
			"scale":[
				0.04017636552453041,
				0.04017636552453041,
				0.04017636552453041
			],
			"translation":[
				0.0002832988975569606,
				0.08992590755224228,
				-1.6084834337234497
			]
		},
		{
			"children":[
				1,
				3
			],
			"name":"group5"
		},
		{
			"mesh":2,
			"name":"pPlaneShape74"
		},
		{
			"children":[
				5
			],
			"name":"pPlane74_PIVOT",
			"translation":[
				0,
				0.47297951579093933,
				0
			]
		},
		{
			"children":[
				6
			],
			"name":"pPlane74",
			"rotation":[
				0.08530578762292862,
				0.0153712322935462,
				-0.17666645348072052,
				0.9804466366767883
			],
			"scale":[
				0.011642665602266788,
				0.03060745634138584,
				0.08752069622278214
			],
			"translation":[
				0.020590122789144516,
				0.048336517065763474,
				-1.5888819694519043
			]
		},
		{
			"mesh":3,
			"name":"pPlaneShape75"
		},
		{
			"children":[
				8
			],
			"name":"pPlane75_PIVOT",
			"translation":[
				0,
				0.4729798138141632,
				0
			]
		},
		{
			"children":[
				9
			],
			"name":"pPlane75",
			"rotation":[
				0.1827511191368103,
				0.7068508863449097,
				-0.0638829693198204,
				0.68035489320755
			],
			"scale":[
				0.011642667464911938,
				0.03060745820403099,
				0.08752071112394333
			],
			"translation":[
				0.020590122789144516,
				0.048336517065763474,
				-1.5888819694519043
			]
		},
		{
			"children":[
				7,
				10
			],
			"name":"group6_PIVOT",
			"translation":[
				-0.020826192572712898,
				-0.04994233697652817,
				1.5857492685317993
			]
		},
		{
			"children":[
				11
			],
			"name":"group6",
			"rotation":[
				0.03566453605890274,
				0,
				0,
				0.9993638396263123
			],
			"translation":[
				0.020826192572712898,
				0.04991236329078674,
				-1.5865894556045532
			]
		},
		{
			"mesh":4,
			"name":"pCylinderShape15"
		},
		{
			"children":[
				13
			],
			"name":"pCylinder15",
			"rotation":[
				-0.08759795874357224,
				0,
				0,
				0.9961559176445007
			],
			"scale":[
				0.006285910960286856,
				0.006285910028964281,
				0.02338378131389618
			],
			"translation":[
				0,
				0.10654112696647644,
				-1.5782495737075806
			]
		},
		{
			"mesh":5,
			"name":"pSphereShape1"
		},
		{
			"children":[
				15
			],
			"name":"pSphere1",
			"rotation":[
				0.7059075236320496,
				0,
				0,
				0.7083039879798889
			],
			"scale":[
				0.015415349043905735,
				0.01541534997522831,
				0.03158603981137276
			],
			"translation":[
				-0.00047382665798068047,
				0.08990353345870972,
				-1.6096765995025635
			]
		},
		{
			"children":[
				14,
				16
			],
			"name":"group7_PIVOT",
			"translation":[
				0.0007108113495633006,
				-0.09192327409982681,
				1.6099138259887695
			]
		},
		{
			"children":[
				17
			],
			"name":"group7",
			"translation":[
				-0.0007108105346560478,
				0.09192327409982681,
				-1.6099138259887695
			]
		},
		{
			"mesh":6,
			"name":"pPlaneShape76"
		},
		{
			"children":[
				19
			],
			"name":"pPlane76",
			"rotation":[
				-0.6523582339286804,
				0.2753550708293915,
				-0.291363388299942,
				0.6432073712348938
			],
			"scale":[
				0.014161331579089165,
				0.03060745820403099,
				0.08752069622278214
			],
			"translation":[
				0.022457493469119072,
				0.04979066550731659,
				-1.603403925895691
			]
		},
		{
			"mesh":7,
			"name":"pSphereShape2"
		},
		{
			"children":[
				21
			],
			"name":"pSphere2_PIVOT"
		},
		{
			"children":[
				22
			],
			"name":"pSphere2",
			"rotation":[
				0,
				0,
				0.6946684718132019,
				0.7193300127983093
			],
			"scale":[
				0.03748239949345589,
				0.03748239949345589,
				0.037482406944036484
			],
			"translation":[
				0,
				0.06902875751256943,
				-1.5918691158294678
			]
		},
		{
			"children":[
				4,
				12,
				18,
				20,
				23
			],
			"name":"Alarmanlage",
			"rotation":[
				0,
				-1,
				0,
				4.371138473402425e-08
			],
			"scale":[
				0.11404296010732651,
				0.11404296010732651,
				0.11404296010732651
			],
			"translation":[
				0.0007196951773948967,
				-0.010374250821769238,
				-0.18174991011619568
			]
		}
	],
	"animations":[
		{
			"channels":[
				{
					"sampler":0,
					"target":{
						"node":12,
						"path":"rotation"
					}
				}
			],
			"name":"group6Action",
			"samplers":[
				{
					"input":38,
					"interpolation":"LINEAR",
					"output":39
				}
			]
		},
		{
			"channels":[
				{
					"sampler":0,
					"target":{
						"node":7,
						"path":"rotation"
					}
				}
			],
			"name":"pPlane74Action",
			"samplers":[
				{
					"input":40,
					"interpolation":"LINEAR",
					"output":41
				}
			]
		},
		{
			"channels":[
				{
					"sampler":0,
					"target":{
						"node":10,
						"path":"rotation"
					}
				}
			],
			"name":"pPlane75Action",
			"samplers":[
				{
					"input":40,
					"interpolation":"LINEAR",
					"output":42
				}
			]
		},
		{
			"channels":[
				{
					"sampler":0,
					"target":{
						"node":18,
						"path":"rotation"
					}
				}
			],
			"name":"group7Action",
			"samplers":[
				{
					"input":40,
					"interpolation":"LINEAR",
					"output":43
				}
			]
		},
		{
			"channels":[
				{
					"sampler":0,
					"target":{
						"node":23,
						"path":"translation"
					}
				}
			],
			"name":"pSphere2Action",
			"samplers":[
				{
					"input":40,
					"interpolation":"LINEAR",
					"output":44
				}
			]
		}
	],
	"materials":[
		{
			"alphaMode":"BLEND",
			"doubleSided":true,
			"name":"lambert3_pCylinderShape11",
			"pbrMetallicRoughness":{
				"metallicFactor":0,
				"roughnessFactor":0.5
			}
		},
		{
			"alphaMode":"BLEND",
			"doubleSided":true,
			"name":"lambert_pPlaneShape73",
			"pbrMetallicRoughness":{
				"metallicFactor":0,
				"roughnessFactor":0.5
			}
		},
		{
			"alphaMode":"BLEND",
			"doubleSided":true,
			"name":"lambert3_pPlaneShape74",
			"pbrMetallicRoughness":{
				"metallicFactor":0,
				"roughnessFactor":0.5
			}
		},
		{
			"alphaMode":"BLEND",
			"doubleSided":true,
			"name":"lambert3_pPlaneShape75",
			"pbrMetallicRoughness":{
				"metallicFactor":0,
				"roughnessFactor":0.5
			}
		},
		{
			"alphaMode":"BLEND",
			"doubleSided":true,
			"name":"lambert2_pCylinderShape15",
			"pbrMetallicRoughness":{
				"metallicFactor":0,
				"roughnessFactor":0.5
			}
		},
		{
			"alphaMode":"BLEND",
			"doubleSided":true,
			"name":"lambert2_pSphereShape1",
			"pbrMetallicRoughness":{
				"metallicFactor":0,
				"roughnessFactor":0.5
			}
		},
		{
			"alphaMode":"BLEND",
			"doubleSided":true,
			"name":"lambert3_pPlaneShape76",
			"pbrMetallicRoughness":{
				"metallicFactor":0,
				"roughnessFactor":0.5
			}
		},
		{
			"alphaMode":"BLEND",
			"doubleSided":true,
			"name":"lambert3_pSphereShape2",
			"pbrMetallicRoughness":{
				"metallicFactor":0,
				"roughnessFactor":0.5
			}
		}
	],
	"meshes":[
		{
			"name":"pCylinderShape11",
			"primitives":[
				{
					"attributes":{
						"POSITION":0,
						"NORMAL":1,
						"TEXCOORD_0":2,
						"TANGENT":3
					},
					"indices":4,
					"material":0
				}
			]
		},
		{
			"name":"pPlaneShape73",
			"primitives":[
				{
					"attributes":{
						"POSITION":5,
						"NORMAL":6,
						"TEXCOORD_0":7,
						"TANGENT":8
					},
					"indices":9,
					"material":1
				}
			]
		},
		{
			"name":"pPlaneShape74",
			"primitives":[
				{
					"attributes":{
						"POSITION":10,
						"NORMAL":11,
						"TEXCOORD_0":12,
						"TANGENT":13
					},
					"indices":14,
					"material":2
				}
			]
		},
		{
			"name":"pPlaneShape75",
			"primitives":[
				{
					"attributes":{
						"POSITION":15,
						"NORMAL":16,
						"TEXCOORD_0":17,
						"TANGENT":18
					},
					"indices":9,
					"material":3
				}
			]
		},
		{
			"name":"pCylinderShape15",
			"primitives":[
				{
					"attributes":{
						"POSITION":19,
						"NORMAL":20,
						"TEXCOORD_0":21,
						"TANGENT":22
					},
					"indices":23,
					"material":4
				}
			]
		},
		{
			"name":"pSphereShape1",
			"primitives":[
				{
					"attributes":{
						"POSITION":24,
						"NORMAL":25,
						"TEXCOORD_0":26,
						"TANGENT":27
					},
					"indices":28,
					"material":5
				}
			]
		},
		{
			"name":"pPlaneShape76",
			"primitives":[
				{
					"attributes":{
						"POSITION":29,
						"NORMAL":30,
						"TEXCOORD_0":31,
						"TANGENT":32
					},
					"indices":14,
					"material":6
				}
			]
		},
		{
			"name":"pSphereShape2",
			"primitives":[
				{
					"attributes":{
						"POSITION":33,
						"NORMAL":34,
						"TEXCOORD_0":35,
						"TANGENT":36
					},
					"indices":37,
					"material":7
				}
			]
		}
	],
	"accessors":[
		{
			"bufferView":0,
			"componentType":5126,
			"count":16,
			"max":[
				1.0000009536743164,
				0.9999988675117493,
				-0.05291368067264557
			],
			"min":[
				-0.999998927116394,
				-1.0000008344650269,
				-0.9999999403953552
			],
			"type":"VEC3"
		},
		{
			"bufferView":1,
			"componentType":5126,
			"count":16,
			"type":"VEC3"
		},
		{
			"bufferView":2,
			"componentType":5126,
			"count":16,
			"type":"VEC2"
		},
		{
			"bufferView":3,
			"componentType":5126,
			"count":16,
			"type":"VEC4"
		},
		{
			"bufferView":4,
			"componentType":5123,
			"count":24,
			"type":"SCALAR"
		},
		{
			"bufferView":5,
			"componentType":5126,
			"count":4,
			"max":[
				0.5,
				0.49999889731407166,
				-7.927834388965493e-08
			],
			"min":[
				-0.5,
				-0.49999865889549255,
				-7.927834388965493e-08
			],
			"type":"VEC3"
		},
		{
			"bufferView":6,
			"componentType":5126,
			"count":4,
			"type":"VEC3"
		},
		{
			"bufferView":7,
			"componentType":5126,
			"count":4,
			"type":"VEC2"
		},
		{
			"bufferView":8,
			"componentType":5126,
			"count":4,
			"type":"VEC4"
		},
		{
			"bufferView":9,
			"componentType":5123,
			"count":6,
			"type":"SCALAR"
		},
		{
			"bufferView":10,
			"componentType":5126,
			"count":4,
			"max":[
				0.25,
				0.5,
				1.1102230246251565e-16
			],
			"min":[
				-0.25,
				-0.5,
				-1.1102230246251565e-16
			],
			"type":"VEC3"
		},
		{
			"bufferView":11,
			"componentType":5126,
			"count":4,
			"type":"VEC3"
		},
		{
			"bufferView":12,
			"componentType":5126,
			"count":4,
			"type":"VEC2"
		},
		{
			"bufferView":13,
			"componentType":5126,
			"count":4,
			"type":"VEC4"
		},
		{
			"bufferView":14,
			"componentType":5123,
			"count":6,
			"type":"SCALAR"
		},
		{
			"bufferView":15,
			"componentType":5126,
			"count":4,
			"max":[
				0.25,
				0.5,
				1.1102230246251565e-16
			],
			"min":[
				-0.25,
				-0.5,
				-1.1102230246251565e-16
			],
			"type":"VEC3"
		},
		{
			"bufferView":16,
			"componentType":5126,
			"count":4,
			"type":"VEC3"
		},
		{
			"bufferView":17,
			"componentType":5126,
			"count":4,
			"type":"VEC2"
		},
		{
			"bufferView":18,
			"componentType":5126,
			"count":4,
			"type":"VEC4"
		},
		{
			"bufferView":19,
			"componentType":5126,
			"count":20,
			"max":[
				3.5462660789489746,
				4.146327972412109,
				0.7191811800003052
			],
			"min":[
				-3.355283260345459,
				-3.1103904247283936,
				-1
			],
			"type":"VEC3"
		},
		{
			"bufferView":20,
			"componentType":5126,
			"count":20,
			"type":"VEC3"
		},
		{
			"bufferView":21,
			"componentType":5126,
			"count":20,
			"type":"VEC2"
		},
		{
			"bufferView":22,
			"componentType":5126,
			"count":20,
			"type":"VEC4"
		},
		{
			"bufferView":23,
			"componentType":5123,
			"count":30,
			"type":"SCALAR"
		},
		{
			"bufferView":24,
			"componentType":5126,
			"count":66,
			"max":[
				1,
				0.8660274147987366,
				8.046054489341259e-08
			],
			"min":[
				-1.0000001192092896,
				-0.8660236597061157,
				-0.905448853969574
			],
			"type":"VEC3"
		},
		{
			"bufferView":25,
			"componentType":5126,
			"count":66,
			"type":"VEC3"
		},
		{
			"bufferView":26,
			"componentType":5126,
			"count":66,
			"type":"VEC2"
		},
		{
			"bufferView":27,
			"componentType":5126,
			"count":66,
			"type":"VEC4"
		},
		{
			"bufferView":28,
			"componentType":5123,
			"count":90,
			"type":"SCALAR"
		},
		{
			"bufferView":29,
			"componentType":5126,
			"count":4,
			"max":[
				0.25,
				0.5,
				1.1102230246251565e-16
			],
			"min":[
				-0.25,
				-0.5,
				-1.1102230246251565e-16
			],
			"type":"VEC3"
		},
		{
			"bufferView":30,
			"componentType":5126,
			"count":4,
			"type":"VEC3"
		},
		{
			"bufferView":31,
			"componentType":5126,
			"count":4,
			"type":"VEC2"
		},
		{
			"bufferView":32,
			"componentType":5126,
			"count":4,
			"type":"VEC4"
		},
		{
			"bufferView":33,
			"componentType":5126,
			"count":42,
			"max":[
				0.4755282700061798,
				0.4118195176124573,
				0.4999997913837433
			],
			"min":[
				-0.4755283296108246,
				-0.41181960701942444,
				0.1545090526342392
			],
			"type":"VEC3"
		},
		{
			"bufferView":34,
			"componentType":5126,
			"count":42,
			"type":"VEC3"
		},
		{
			"bufferView":35,
			"componentType":5126,
			"count":42,
			"type":"VEC2"
		},
		{
			"bufferView":36,
			"componentType":5126,
			"count":42,
			"type":"VEC4"
		},
		{
			"bufferView":37,
			"componentType":5123,
			"count":54,
			"type":"SCALAR"
		},
		{
			"bufferView":38,
			"componentType":5126,
			"count":4,
			"max":[
				0.16666666666666666
			],
			"min":[
				0.041666666666666664
			],
			"type":"SCALAR"
		},
		{
			"bufferView":39,
			"componentType":5126,
			"count":4,
			"type":"VEC4"
		},
		{
			"bufferView":40,
			"componentType":5126,
			"count":12,
			"max":[
				0.5
			],
			"min":[
				0.041666666666666664
			],
			"type":"SCALAR"
		},
		{
			"bufferView":41,
			"componentType":5126,
			"count":12,
			"type":"VEC4"
		},
		{
			"bufferView":42,
			"componentType":5126,
			"count":12,
			"type":"VEC4"
		},
		{
			"bufferView":43,
			"componentType":5126,
			"count":12,
			"type":"VEC4"
		},
		{
			"bufferView":44,
			"componentType":5126,
			"count":12,
			"type":"VEC3"
		}
	],
	"bufferViews":[
		{
			"buffer":0,
			"byteLength":192,
			"byteOffset":0,
			"target":34962
		},
		{
			"buffer":0,
			"byteLength":192,
			"byteOffset":192,
			"target":34962
		},
		{
			"buffer":0,
			"byteLength":128,
			"byteOffset":384,
			"target":34962
		},
		{
			"buffer":0,
			"byteLength":256,
			"byteOffset":512,
			"target":34962
		},
		{
			"buffer":0,
			"byteLength":48,
			"byteOffset":768,
			"target":34963
		},
		{
			"buffer":0,
			"byteLength":48,
			"byteOffset":816,
			"target":34962
		},
		{
			"buffer":0,
			"byteLength":48,
			"byteOffset":864,
			"target":34962
		},
		{
			"buffer":0,
			"byteLength":32,
			"byteOffset":912,
			"target":34962
		},
		{
			"buffer":0,
			"byteLength":64,
			"byteOffset":944,
			"target":34962
		},
		{
			"buffer":0,
			"byteLength":12,
			"byteOffset":1008,
			"target":34963
		},
		{
			"buffer":0,
			"byteLength":48,
			"byteOffset":1020,
			"target":34962
		},
		{
			"buffer":0,
			"byteLength":48,
			"byteOffset":1068,
			"target":34962
		},
		{
			"buffer":0,
			"byteLength":32,
			"byteOffset":1116,
			"target":34962
		},
		{
			"buffer":0,
			"byteLength":64,
			"byteOffset":1148,
			"target":34962
		},
		{
			"buffer":0,
			"byteLength":12,
			"byteOffset":1212,
			"target":34963
		},
		{
			"buffer":0,
			"byteLength":48,
			"byteOffset":1224,
			"target":34962
		},
		{
			"buffer":0,
			"byteLength":48,
			"byteOffset":1272,
			"target":34962
		},
		{
			"buffer":0,
			"byteLength":32,
			"byteOffset":1320,
			"target":34962
		},
		{
			"buffer":0,
			"byteLength":64,
			"byteOffset":1352,
			"target":34962
		},
		{
			"buffer":0,
			"byteLength":240,
			"byteOffset":1416,
			"target":34962
		},
		{
			"buffer":0,
			"byteLength":240,
			"byteOffset":1656,
			"target":34962
		},
		{
			"buffer":0,
			"byteLength":160,
			"byteOffset":1896,
			"target":34962
		},
		{
			"buffer":0,
			"byteLength":320,
			"byteOffset":2056,
			"target":34962
		},
		{
			"buffer":0,
			"byteLength":60,
			"byteOffset":2376,
			"target":34963
		},
		{
			"buffer":0,
			"byteLength":792,
			"byteOffset":2436,
			"target":34962
		},
		{
			"buffer":0,
			"byteLength":792,
			"byteOffset":3228,
			"target":34962
		},
		{
			"buffer":0,
			"byteLength":528,
			"byteOffset":4020,
			"target":34962
		},
		{
			"buffer":0,
			"byteLength":1056,
			"byteOffset":4548,
			"target":34962
		},
		{
			"buffer":0,
			"byteLength":180,
			"byteOffset":5604,
			"target":34963
		},
		{
			"buffer":0,
			"byteLength":48,
			"byteOffset":5784,
			"target":34962
		},
		{
			"buffer":0,
			"byteLength":48,
			"byteOffset":5832,
			"target":34962
		},
		{
			"buffer":0,
			"byteLength":32,
			"byteOffset":5880,
			"target":34962
		},
		{
			"buffer":0,
			"byteLength":64,
			"byteOffset":5912,
			"target":34962
		},
		{
			"buffer":0,
			"byteLength":504,
			"byteOffset":5976,
			"target":34962
		},
		{
			"buffer":0,
			"byteLength":504,
			"byteOffset":6480,
			"target":34962
		},
		{
			"buffer":0,
			"byteLength":336,
			"byteOffset":6984,
			"target":34962
		},
		{
			"buffer":0,
			"byteLength":672,
			"byteOffset":7320,
			"target":34962
		},
		{
			"buffer":0,
			"byteLength":108,
			"byteOffset":7992,
			"target":34963
		},
		{
			"buffer":0,
			"byteLength":16,
			"byteOffset":8100
		},
		{
			"buffer":0,
			"byteLength":64,
			"byteOffset":8116
		},
		{
			"buffer":0,
			"byteLength":48,
			"byteOffset":8180
		},
		{
			"buffer":0,
			"byteLength":192,
			"byteOffset":8228
		},
		{
			"buffer":0,
			"byteLength":192,
			"byteOffset":8420
		},
		{
			"buffer":0,
			"byteLength":192,
			"byteOffset":8612
		},
		{
			"buffer":0,
			"byteLength":144,
			"byteOffset":8804
		}
	],
	"buffers":[
		{
			"byteLength":8948,
			"uri":"AlarmSystem-912667b597ea78156e3fe0a66d6952b4.bin"
		}
	]
}
