{
	"asset":{
		"generator":"Khronos glTF Blender I/O v5.1.20",
		"version":"2.0"
	},
	"scene":0,
	"scenes":[
		{
			"extras":{
				"batch_export":{}
			},
			"name":"Scene",
			"nodes":[
				0,
				1,
				2,
				3,
				4,
				5,
				6,
				7,
				8,
				9,
				10,
				11,
				12,
				13,
				14,
				15,
				16,
				17
			]
		}
	],
	"nodes":[
		{
			"mesh":0,
			"name":"SM_Slice_Of_Pizza_Mushrooms",
			"rotation":[
				0.7071068286895752,
				0,
				0,
				0.7071068286895752
			],
			"scale":[
				0.009999999776482582,
				0.009999999776482582,
				0.009999999776482582
			]
		},
		{
			"mesh":1,
			"name":"SM_Slice_Of_Pizza_Sauce_Top",
			"rotation":[
				0.7071068286895752,
				0,
				0,
				0.7071068286895752
			],
			"scale":[
				0.009999999776482582,
				0.009999999776482582,
				0.009999999776482582
			]
		},
		{
			"mesh":2,
			"name":"SM_Slice_Of_Pizza_Sausage",
			"rotation":[
				0.7071068286895752,
				0,
				0,
				0.7071068286895752
			],
			"scale":[
				0.009999999776482582,
				0.009999999776482582,
				0.009999999776482582
			]
		},
		{
			"mesh":3,
			"name":"SM_Slice_Of_Pizza_Tomatoes",
			"rotation":[
				0.7071068286895752,
				0,
				0,
				0.7071068286895752
			],
			"scale":[
				0.009999999776482582,
				0.009999999776482582,
				0.009999999776482582
			]
		},
		{
			"mesh":4,
			"name":"SM_Slice_Of_PizzaCheese",
			"rotation":[
				0.7071068286895752,
				0,
				0,
				0.7071068286895752
			],
			"scale":[
				0.009999999776482582,
				0.009999999776482582,
				0.009999999776482582
			]
		},
		{
			"mesh":5,
			"name":"SM_Pizza_Sauce_Bottom",
			"rotation":[
				0.7071068286895752,
				0,
				0,
				0.7071068286895752
			],
			"scale":[
				0.009999999776482582,
				0.009999999776482582,
				0.009999999776482582
			]
		},
		{
			"mesh":6,
			"name":"SM_Pizza_Sauce_Top",
			"rotation":[
				0.7071068286895752,
				0,
				0,
				0.7071068286895752
			],
			"scale":[
				0.009999999776482582,
				0.009999999776482582,
				0.009999999776482582
			]
		},
		{
			"mesh":7,
			"name":"SM_Pizza_Sausage",
			"rotation":[
				0.7071068286895752,
				0,
				0,
				0.7071068286895752
			],
			"scale":[
				0.009999999776482582,
				0.009999999776482582,
				0.009999999776482582
			]
		},
		{
			"mesh":8,
			"name":"SM_Pizza_Tomatoes",
			"rotation":[
				0.7071068286895752,
				0,
				0,
				0.7071068286895752
			],
			"scale":[
				0.009999999776482582,
				0.009999999776482582,
				0.009999999776482582
			]
		},
		{
			"mesh":9,
			"name":"SM_Slice_Of_Pizza_Bacon",
			"rotation":[
				0.7071068286895752,
				0,
				0,
				0.7071068286895752
			],
			"scale":[
				0.009999999776482582,
				0.009999999776482582,
				0.009999999776482582
			]
		},
		{
			"mesh":10,
			"name":"SM_Slice_Of_Pizza_Base",
			"rotation":[
				0.7071068286895752,
				0,
				0,
				0.7071068286895752
			],
			"scale":[
				0.009999999776482582,
				0.009999999776482582,
				0.009999999776482582
			]
		},
		{
			"mesh":11,
			"name":"SM_Slice_Of_Pizza_Bottom",
			"rotation":[
				0.7071068286895752,
				0,
				0,
				0.7071068286895752
			],
			"scale":[
				0.009999999776482582,
				0.009999999776482582,
				0.009999999776482582
			]
		},
		{
			"mesh":12,
			"name":"SM_Slice_Of_Pizza_Leaf",
			"rotation":[
				0.7071068286895752,
				0,
				0,
				0.7071068286895752
			],
			"scale":[
				0.009999999776482582,
				0.009999999776482582,
				0.009999999776482582
			]
		},
		{
			"mesh":13,
			"name":"SM_Pizza_Bacon",
			"rotation":[
				0.7071068286895752,
				0,
				0,
				0.7071068286895752
			],
			"scale":[
				0.009999999776482582,
				0.009999999776482582,
				0.009999999776482582
			]
		},
		{
			"mesh":14,
			"name":"SM_Pizza_Base",
			"rotation":[
				0.7071068286895752,
				0,
				0,
				0.7071068286895752
			],
			"scale":[
				0.009999999776482582,
				0.009999999776482582,
				0.009999999776482582
			]
		},
		{
			"mesh":15,
			"name":"SM_Pizza_Cheese",
			"rotation":[
				0.7071068286895752,
				0,
				0,
				0.7071068286895752
			],
			"scale":[
				0.009999999776482582,
				0.009999999776482582,
				0.009999999776482582
			]
		},
		{
			"mesh":16,
			"name":"SM_Pizza_Lettuce_Leaf",
			"rotation":[
				0.7071068286895752,
				0,
				0,
				0.7071068286895752
			],
			"scale":[
				0.009999999776482582,
				0.009999999776482582,
				0.009999999776482582
			]
		},
		{
			"mesh":17,
			"name":"SM_Pizza_Mushrooms",
			"rotation":[
				0.7071068286895752,
				0,
				0,
				0.7071068286895752
			],
			"scale":[
				0.009999999776482582,
				0.009999999776482582,
				0.009999999776482582
			]
		}
	],
	"materials":[
		{
			"doubleSided":true,
			"emissiveFactor":[
				7.143554830690846e-05,
				3.675522020785138e-05,
				0
			],
			"name":"MainMaterial",
			"pbrMetallicRoughness":{
				"metallicFactor":0,
				"roughnessFactor":0.5
			}
		},
		{
			"doubleSided":true,
			"emissiveFactor":[
				7.143554830690846e-05,
				3.675522020785138e-05,
				0
			],
			"name":"MainMaterial.001",
			"pbrMetallicRoughness":{
				"metallicFactor":0,
				"roughnessFactor":0.5
			}
		},
		{
			"doubleSided":true,
			"emissiveFactor":[
				7.143554830690846e-05,
				3.675522020785138e-05,
				0
			],
			"name":"MainMaterial.002",
			"pbrMetallicRoughness":{
				"metallicFactor":0,
				"roughnessFactor":0.5
			}
		},
		{
			"doubleSided":true,
			"emissiveFactor":[
				7.143554830690846e-05,
				3.675522020785138e-05,
				0
			],
			"name":"MainMaterial.003",
			"pbrMetallicRoughness":{
				"metallicFactor":0,
				"roughnessFactor":0.5
			}
		},
		{
			"doubleSided":true,
			"emissiveFactor":[
				7.143554830690846e-05,
				3.675522020785138e-05,
				0
			],
			"name":"MainMaterial.004",
			"pbrMetallicRoughness":{
				"metallicFactor":0,
				"roughnessFactor":0.5
			}
		},
		{
			"doubleSided":true,
			"emissiveFactor":[
				7.143554830690846e-05,
				3.675522020785138e-05,
				0
			],
			"name":"MainMaterial.005",
			"pbrMetallicRoughness":{
				"metallicFactor":0,
				"roughnessFactor":0.5
			}
		},
		{
			"doubleSided":true,
			"emissiveFactor":[
				7.143554830690846e-05,
				3.675522020785138e-05,
				0
			],
			"name":"MainMaterial.006",
			"pbrMetallicRoughness":{
				"metallicFactor":0,
				"roughnessFactor":0.5
			}
		},
		{
			"doubleSided":true,
			"emissiveFactor":[
				7.143554830690846e-05,
				3.675522020785138e-05,
				0
			],
			"name":"MainMaterial.007",
			"pbrMetallicRoughness":{
				"metallicFactor":0,
				"roughnessFactor":0.5
			}
		},
		{
			"doubleSided":true,
			"emissiveFactor":[
				7.143554830690846e-05,
				3.675522020785138e-05,
				0
			],
			"name":"MainMaterial.008",
			"pbrMetallicRoughness":{
				"metallicFactor":0,
				"roughnessFactor":0.5
			}
		},
		{
			"doubleSided":true,
			"emissiveFactor":[
				7.143554830690846e-05,
				3.675522020785138e-05,
				0
			],
			"name":"MainMaterial.009",
			"pbrMetallicRoughness":{
				"metallicFactor":0,
				"roughnessFactor":0.5
			}
		},
		{
			"doubleSided":true,
			"emissiveFactor":[
				7.143554830690846e-05,
				3.675522020785138e-05,
				0
			],
			"name":"MainMaterial.010",
			"pbrMetallicRoughness":{
				"metallicFactor":0,
				"roughnessFactor":0.5
			}
		},
		{
			"doubleSided":true,
			"emissiveFactor":[
				7.143554830690846e-05,
				3.675522020785138e-05,
				0
			],
			"name":"MainMaterial.011",
			"pbrMetallicRoughness":{
				"metallicFactor":0,
				"roughnessFactor":0.5
			}
		},
		{
			"doubleSided":true,
			"emissiveFactor":[
				7.143554830690846e-05,
				3.675522020785138e-05,
				0
			],
			"name":"MainMaterial.012",
			"pbrMetallicRoughness":{
				"metallicFactor":0,
				"roughnessFactor":0.5
			}
		},
		{
			"doubleSided":true,
			"emissiveFactor":[
				7.143554830690846e-05,
				3.675522020785138e-05,
				0
			],
			"name":"MainMaterial.013",
			"pbrMetallicRoughness":{
				"metallicFactor":0,
				"roughnessFactor":0.5
			}
		},
		{
			"doubleSided":true,
			"emissiveFactor":[
				7.143554830690846e-05,
				3.675522020785138e-05,
				0
			],
			"name":"MainMaterial.014",
			"pbrMetallicRoughness":{
				"metallicFactor":0,
				"roughnessFactor":0.5
			}
		},
		{
			"doubleSided":true,
			"emissiveFactor":[
				7.143554830690846e-05,
				3.675522020785138e-05,
				0
			],
			"name":"MainMaterial.015",
			"pbrMetallicRoughness":{
				"metallicFactor":0,
				"roughnessFactor":0.5
			}
		},
		{
			"doubleSided":true,
			"emissiveFactor":[
				7.143554830690846e-05,
				3.675522020785138e-05,
				0
			],
			"name":"MainMaterial.016",
			"pbrMetallicRoughness":{
				"metallicFactor":0,
				"roughnessFactor":0.5
			}
		},
		{
			"doubleSided":true,
			"emissiveFactor":[
				7.143554830690846e-05,
				3.675522020785138e-05,
				0
			],
			"name":"MainMaterial.017",
			"pbrMetallicRoughness":{
				"metallicFactor":0,
				"roughnessFactor":0.5
			}
		}
	],
	"meshes":[
		{
			"name":"Scene",
			"primitives":[
				{
					"attributes":{
						"POSITION":0,
						"NORMAL":1,
						"TEXCOORD_0":2,
						"TEXCOORD_1":3,
						"TANGENT":4
					},
					"indices":5,
					"material":0
				}
			]
		},
		{
			"name":"Scene.001",
			"primitives":[
				{
					"attributes":{
						"POSITION":6,
						"NORMAL":7,
						"TEXCOORD_0":8,
						"TEXCOORD_1":9,
						"TANGENT":10
					},
					"indices":11,
					"material":1
				}
			]
		},
		{
			"name":"Scene.002",
			"primitives":[
				{
					"attributes":{
						"POSITION":12,
						"NORMAL":13,
						"TEXCOORD_0":14,
						"TEXCOORD_1":15,
						"TANGENT":16
					},
					"indices":17,
					"material":2
				}
			]
		},
		{
			"name":"Scene.003",
			"primitives":[
				{
					"attributes":{
						"POSITION":18,
						"NORMAL":19,
						"TEXCOORD_0":20,
						"TEXCOORD_1":21,
						"TANGENT":22
					},
					"indices":23,
					"material":3
				}
			]
		},
		{
			"name":"Scene.004",
			"primitives":[
				{
					"attributes":{
						"POSITION":24,
						"NORMAL":25,
						"TEXCOORD_0":26,
						"TEXCOORD_1":27,
						"TANGENT":28
					},
					"indices":29,
					"material":4
				}
			]
		},
		{
			"name":"Scene.005",
			"primitives":[
				{
					"attributes":{
						"POSITION":30,
						"NORMAL":31,
						"TEXCOORD_0":32,
						"TEXCOORD_1":33,
						"TANGENT":34
					},
					"indices":35,
					"material":5
				}
			]
		},
		{
			"name":"Scene.006",
			"primitives":[
				{
					"attributes":{
						"POSITION":36,
						"NORMAL":37,
						"TEXCOORD_0":38,
						"TEXCOORD_1":39,
						"TANGENT":40
					},
					"indices":41,
					"material":6
				}
			]
		},
		{
			"name":"Scene.007",
			"primitives":[
				{
					"attributes":{
						"POSITION":42,
						"NORMAL":43,
						"TEXCOORD_0":44,
						"TEXCOORD_1":45,
						"TANGENT":46
					},
					"indices":47,
					"material":7
				}
			]
		},
		{
			"name":"Scene.008",
			"primitives":[
				{
					"attributes":{
						"POSITION":48,
						"NORMAL":49,
						"TEXCOORD_0":50,
						"TEXCOORD_1":51,
						"TANGENT":52
					},
					"indices":53,
					"material":8
				}
			]
		},
		{
			"name":"Scene.009",
			"primitives":[
				{
					"attributes":{
						"POSITION":54,
						"NORMAL":55,
						"TEXCOORD_0":56,
						"TEXCOORD_1":57,
						"TANGENT":58
					},
					"indices":59,
					"material":9
				}
			]
		},
		{
			"name":"Scene.010",
			"primitives":[
				{
					"attributes":{
						"POSITION":60,
						"NORMAL":61,
						"TEXCOORD_0":62,
						"TEXCOORD_1":63,
						"TANGENT":64
					},
					"indices":65,
					"material":10
				}
			]
		},
		{
			"name":"Scene.011",
			"primitives":[
				{
					"attributes":{
						"POSITION":66,
						"NORMAL":67,
						"TEXCOORD_0":68,
						"TEXCOORD_1":69,
						"TANGENT":70
					},
					"indices":71,
					"material":11
				}
			]
		},
		{
			"name":"Scene.012",
			"primitives":[
				{
					"attributes":{
						"POSITION":72,
						"NORMAL":73,
						"TEXCOORD_0":74,
						"TEXCOORD_1":75,
						"TANGENT":76
					},
					"indices":77,
					"material":12
				}
			]
		},
		{
			"name":"Scene.013",
			"primitives":[
				{
					"attributes":{
						"POSITION":78,
						"NORMAL":79,
						"TEXCOORD_0":80,
						"TEXCOORD_1":81,
						"TANGENT":82
					},
					"indices":83,
					"material":13
				}
			]
		},
		{
			"name":"Scene.014",
			"primitives":[
				{
					"attributes":{
						"POSITION":84,
						"NORMAL":85,
						"TEXCOORD_0":86,
						"TEXCOORD_1":87,
						"TANGENT":88
					},
					"indices":89,
					"material":14
				}
			]
		},
		{
			"name":"Scene.015",
			"primitives":[
				{
					"attributes":{
						"POSITION":90,
						"NORMAL":91,
						"TEXCOORD_0":92,
						"TEXCOORD_1":93,
						"TANGENT":94
					},
					"indices":95,
					"material":15
				}
			]
		},
		{
			"name":"Scene.016",
			"primitives":[
				{
					"attributes":{
						"POSITION":96,
						"NORMAL":97,
						"TEXCOORD_0":98,
						"TEXCOORD_1":99,
						"TANGENT":100
					},
					"indices":101,
					"material":16
				}
			]
		},
		{
			"name":"Scene.017",
			"primitives":[
				{
					"attributes":{
						"POSITION":102,
						"NORMAL":103,
						"TEXCOORD_0":104,
						"TEXCOORD_1":105,
						"TANGENT":106
					},
					"indices":107,
					"material":17
				}
			]
		}
	],
	"accessors":[
		{
			"bufferView":0,
			"componentType":5126,
			"count":408,
			"max":[
				5.792343616485596,
				7.846951484680176,
				0.11664032936096191
			],
			"min":[
				-6.231489181518555,
				-5.822174072265625,
				-0.11664330959320068
			],
			"type":"VEC3"
		},
		{
			"bufferView":1,
			"componentType":5126,
			"count":408,
			"type":"VEC3"
		},
		{
			"bufferView":2,
			"componentType":5126,
			"count":408,
			"type":"VEC2"
		},
		{
			"bufferView":3,
			"componentType":5126,
			"count":408,
			"type":"VEC2"
		},
		{
			"bufferView":4,
			"componentType":5126,
			"count":408,
			"type":"VEC4"
		},
		{
			"bufferView":5,
			"componentType":5123,
			"count":792,
			"type":"SCALAR"
		},
		{
			"bufferView":6,
			"componentType":5126,
			"count":483,
			"max":[
				8.607086181640625,
				8.838069915771484,
				0.20876307785511017
			],
			"min":[
				-8.877605438232422,
				-7.8256516456604,
				-0.19341683387756348
			],
			"type":"VEC3"
		},
		{
			"bufferView":7,
			"componentType":5126,
			"count":483,
			"type":"VEC3"
		},
		{
			"bufferView":8,
			"componentType":5126,
			"count":483,
			"type":"VEC2"
		},
		{
			"bufferView":9,
			"componentType":5126,
			"count":483,
			"type":"VEC2"
		},
		{
			"bufferView":10,
			"componentType":5126,
			"count":483,
			"type":"VEC4"
		},
		{
			"bufferView":11,
			"componentType":5123,
			"count":810,
			"type":"SCALAR"
		},
		{
			"bufferView":12,
			"componentType":5126,
			"count":104,
			"max":[
				4.522869110107422,
				4.812253475189209,
				0.1957918107509613
			],
			"min":[
				-5.942152500152588,
				-6.085575580596924,
				-0.19579128921031952
			],
			"type":"VEC3"
		},
		{
			"bufferView":13,
			"componentType":5126,
			"count":104,
			"type":"VEC3"
		},
		{
			"bufferView":14,
			"componentType":5126,
			"count":104,
			"type":"VEC2"
		},
		{
			"bufferView":15,
			"componentType":5126,
			"count":104,
			"type":"VEC2"
		},
		{
			"bufferView":16,
			"componentType":5126,
			"count":104,
			"type":"VEC4"
		},
		{
			"bufferView":17,
			"componentType":5123,
			"count":156,
			"type":"SCALAR"
		},
		{
			"bufferView":18,
			"componentType":5126,
			"count":144,
			"max":[
				6.468236446380615,
				8.626766204833984,
				0.1096307784318924
			],
			"min":[
				-5.202788352966309,
				-4.877538681030273,
				-0.13290321826934814
			],
			"type":"VEC3"
		},
		{
			"bufferView":19,
			"componentType":5126,
			"count":144,
			"type":"VEC3"
		},
		{
			"bufferView":20,
			"componentType":5126,
			"count":144,
			"type":"VEC2"
		},
		{
			"bufferView":21,
			"componentType":5126,
			"count":144,
			"type":"VEC2"
		},
		{
			"bufferView":22,
			"componentType":5126,
			"count":144,
			"type":"VEC4"
		},
		{
			"bufferView":23,
			"componentType":5123,
			"count":252,
			"type":"SCALAR"
		},
		{
			"bufferView":24,
			"componentType":5126,
			"count":120,
			"max":[
				10.224671363830566,
				12.18302059173584,
				0.017690658569335938
			],
			"min":[
				-6.62149715423584,
				-5.4007158279418945,
				-0.10473591089248657
			],
			"type":"VEC3"
		},
		{
			"bufferView":25,
			"componentType":5126,
			"count":120,
			"type":"VEC3"
		},
		{
			"bufferView":26,
			"componentType":5126,
			"count":120,
			"type":"VEC2"
		},
		{
			"bufferView":27,
			"componentType":5126,
			"count":120,
			"type":"VEC2"
		},
		{
			"bufferView":28,
			"componentType":5126,
			"count":120,
			"type":"VEC4"
		},
		{
			"bufferView":29,
			"componentType":5123,
			"count":321,
			"type":"SCALAR"
		},
		{
			"bufferView":30,
			"componentType":5126,
			"count":265,
			"max":[
				19.82038688659668,
				21.37982177734375,
				-0.49989455938339233
			],
			"min":[
				-20.219953536987305,
				-19.688753128051758,
				-0.7280697226524353
			],
			"type":"VEC3"
		},
		{
			"bufferView":31,
			"componentType":5126,
			"count":265,
			"type":"VEC3"
		},
		{
			"bufferView":32,
			"componentType":5126,
			"count":265,
			"type":"VEC2"
		},
		{
			"bufferView":33,
			"componentType":5126,
			"count":265,
			"type":"VEC2"
		},
		{
			"bufferView":34,
			"componentType":5126,
			"count":265,
			"type":"VEC4"
		},
		{
			"bufferView":35,
			"componentType":5123,
			"count":756,
			"type":"SCALAR"
		},
		{
			"bufferView":36,
			"componentType":5126,
			"count":1496,
			"max":[
				20.006465911865234,
				20.20464324951172,
				0.21304653584957123
			],
			"min":[
				-18.125442504882812,
				-19.50535011291504,
				-0.19270238280296326
			],
			"type":"VEC3"
		},
		{
			"bufferView":37,
			"componentType":5126,
			"count":1496,
			"type":"VEC3"
		},
		{
			"bufferView":38,
			"componentType":5126,
			"count":1496,
			"type":"VEC2"
		},
		{
			"bufferView":39,
			"componentType":5126,
			"count":1496,
			"type":"VEC2"
		},
		{
			"bufferView":40,
			"componentType":5126,
			"count":1496,
			"type":"VEC4"
		},
		{
			"bufferView":41,
			"componentType":5123,
			"count":2328,
			"type":"SCALAR"
		},
		{
			"bufferView":42,
			"componentType":5126,
			"count":805,
			"max":[
				17.46824836730957,
				16.95408821105957,
				0.1957898736000061
			],
			"min":[
				-18.506059646606445,
				-16.168495178222656,
				-0.19579319655895233
			],
			"type":"VEC3"
		},
		{
			"bufferView":43,
			"componentType":5126,
			"count":805,
			"type":"VEC3"
		},
		{
			"bufferView":44,
			"componentType":5126,
			"count":805,
			"type":"VEC2"
		},
		{
			"bufferView":45,
			"componentType":5126,
			"count":805,
			"type":"VEC2"
		},
		{
			"bufferView":46,
			"componentType":5126,
			"count":805,
			"type":"VEC4"
		},
		{
			"bufferView":47,
			"componentType":5123,
			"count":1317,
			"type":"SCALAR"
		},
		{
			"bufferView":48,
			"componentType":5126,
			"count":720,
			"max":[
				18.632905960083008,
				18.79827308654785,
				0.12126583606004715
			],
			"min":[
				-17.037464141845703,
				-18.815391540527344,
				-0.12126816809177399
			],
			"type":"VEC3"
		},
		{
			"bufferView":49,
			"componentType":5126,
			"count":720,
			"type":"VEC3"
		},
		{
			"bufferView":50,
			"componentType":5126,
			"count":720,
			"type":"VEC2"
		},
		{
			"bufferView":51,
			"componentType":5126,
			"count":720,
			"type":"VEC2"
		},
		{
			"bufferView":52,
			"componentType":5126,
			"count":720,
			"type":"VEC4"
		},
		{
			"bufferView":53,
			"componentType":5123,
			"count":1260,
			"type":"SCALAR"
		},
		{
			"bufferView":54,
			"componentType":5126,
			"count":72,
			"max":[
				5.326501846313477,
				7.104854106903076,
				0.14076395332813263
			],
			"min":[
				-6.234732627868652,
				-7.962785720825195,
				-0.17854398488998413
			],
			"type":"VEC3"
		},
		{
			"bufferView":55,
			"componentType":5126,
			"count":72,
			"type":"VEC3"
		},
		{
			"bufferView":56,
			"componentType":5126,
			"count":72,
			"type":"VEC2"
		},
		{
			"bufferView":57,
			"componentType":5126,
			"count":72,
			"type":"VEC2"
		},
		{
			"bufferView":58,
			"componentType":5126,
			"count":72,
			"type":"VEC4"
		},
		{
			"bufferView":59,
			"componentType":5123,
			"count":108,
			"type":"SCALAR"
		},
		{
			"bufferView":60,
			"componentType":5126,
			"count":170,
			"max":[
				9.137635231018066,
				10.187372207641602,
				0.9245061278343201
			],
			"min":[
				-10.850377082824707,
				-9.304640769958496,
				-1.1370073556900024
			],
			"type":"VEC3"
		},
		{
			"bufferView":61,
			"componentType":5126,
			"count":170,
			"type":"VEC3"
		},
		{
			"bufferView":62,
			"componentType":5126,
			"count":170,
			"type":"VEC2"
		},
		{
			"bufferView":63,
			"componentType":5126,
			"count":170,
			"type":"VEC2"
		},
		{
			"bufferView":64,
			"componentType":5126,
			"count":170,
			"type":"VEC4"
		},
		{
			"bufferView":65,
			"componentType":5123,
			"count":342,
			"type":"SCALAR"
		},
		{
			"bufferView":66,
			"componentType":5126,
			"count":125,
			"max":[
				10.83796501159668,
				11.873193740844727,
				0.05838111415505409
			],
			"min":[
				-7.326096057891846,
				-6.315682888031006,
				-0.16979630291461945
			],
			"type":"VEC3"
		},
		{
			"bufferView":67,
			"componentType":5126,
			"count":125,
			"type":"VEC3"
		},
		{
			"bufferView":68,
			"componentType":5126,
			"count":125,
			"type":"VEC2"
		},
		{
			"bufferView":69,
			"componentType":5126,
			"count":125,
			"type":"VEC2"
		},
		{
			"bufferView":70,
			"componentType":5126,
			"count":125,
			"type":"VEC4"
		},
		{
			"bufferView":71,
			"componentType":5123,
			"count":306,
			"type":"SCALAR"
		},
		{
			"bufferView":72,
			"componentType":5126,
			"count":264,
			"max":[
				7.526033401489258,
				4.741420745849609,
				0.12651029229164124
			],
			"min":[
				-7.671578407287598,
				-4.454111099243164,
				-0.2912331223487854
			],
			"type":"VEC3"
		},
		{
			"bufferView":73,
			"componentType":5126,
			"count":264,
			"type":"VEC3"
		},
		{
			"bufferView":74,
			"componentType":5126,
			"count":264,
			"type":"VEC2"
		},
		{
			"bufferView":75,
			"componentType":5126,
			"count":264,
			"type":"VEC2"
		},
		{
			"bufferView":76,
			"componentType":5126,
			"count":264,
			"type":"VEC4"
		},
		{
			"bufferView":77,
			"componentType":5123,
			"count":456,
			"type":"SCALAR"
		},
		{
			"bufferView":78,
			"componentType":5126,
			"count":480,
			"max":[
				18.268234252929688,
				19.1644229888916,
				0.1596534550189972
			],
			"min":[
				-16.818313598632812,
				-18.714397430419922,
				-0.15965446829795837
			],
			"type":"VEC3"
		},
		{
			"bufferView":79,
			"componentType":5126,
			"count":480,
			"type":"VEC3"
		},
		{
			"bufferView":80,
			"componentType":5126,
			"count":480,
			"type":"VEC2"
		},
		{
			"bufferView":81,
			"componentType":5126,
			"count":480,
			"type":"VEC2"
		},
		{
			"bufferView":82,
			"componentType":5126,
			"count":480,
			"type":"VEC4"
		},
		{
			"bufferView":83,
			"componentType":5123,
			"count":720,
			"type":"SCALAR"
		},
		{
			"bufferView":84,
			"componentType":5126,
			"count":479,
			"max":[
				21.57834815979004,
				22.715845108032227,
				0.889974057674408
			],
			"min":[
				-21.57833480834961,
				-21.034772872924805,
				-1.3971271514892578
			],
			"type":"VEC3"
		},
		{
			"bufferView":85,
			"componentType":5126,
			"count":479,
			"type":"VEC3"
		},
		{
			"bufferView":86,
			"componentType":5126,
			"count":479,
			"type":"VEC2"
		},
		{
			"bufferView":87,
			"componentType":5126,
			"count":479,
			"type":"VEC2"
		},
		{
			"bufferView":88,
			"componentType":5126,
			"count":479,
			"type":"VEC4"
		},
		{
			"bufferView":89,
			"componentType":5123,
			"count":816,
			"type":"SCALAR"
		},
		{
			"bufferView":90,
			"componentType":5126,
			"count":143,
			"max":[
				18.076887130737305,
				21.10822868347168,
				-0.5302680134773254
			],
			"min":[
				-18.661827087402344,
				-18.706342697143555,
				-0.7930653095245361
			],
			"type":"VEC3"
		},
		{
			"bufferView":91,
			"componentType":5126,
			"count":143,
			"type":"VEC3"
		},
		{
			"bufferView":92,
			"componentType":5126,
			"count":143,
			"type":"VEC2"
		},
		{
			"bufferView":93,
			"componentType":5126,
			"count":143,
			"type":"VEC2"
		},
		{
			"bufferView":94,
			"componentType":5126,
			"count":143,
			"type":"VEC4"
		},
		{
			"bufferView":95,
			"componentType":5123,
			"count":648,
			"type":"SCALAR"
		},
		{
			"bufferView":96,
			"componentType":5126,
			"count":1188,
			"max":[
				16.80917739868164,
				17.280193328857422,
				0.5475109219551086
			],
			"min":[
				-16.454416275024414,
				-17.212980270385742,
				-0.3083862364292145
			],
			"type":"VEC3"
		},
		{
			"bufferView":97,
			"componentType":5126,
			"count":1188,
			"type":"VEC3"
		},
		{
			"bufferView":98,
			"componentType":5126,
			"count":1188,
			"type":"VEC2"
		},
		{
			"bufferView":99,
			"componentType":5126,
			"count":1188,
			"type":"VEC2"
		},
		{
			"bufferView":100,
			"componentType":5126,
			"count":1188,
			"type":"VEC4"
		},
		{
			"bufferView":101,
			"componentType":5123,
			"count":2052,
			"type":"SCALAR"
		},
		{
			"bufferView":102,
			"componentType":5126,
			"count":2312,
			"max":[
				17.148412704467773,
				17.62626838684082,
				0.11660456657409668
			],
			"min":[
				-15.766724586486816,
				-16.736398696899414,
				-0.11667907238006592
			],
			"type":"VEC3"
		},
		{
			"bufferView":103,
			"componentType":5126,
			"count":2312,
			"type":"VEC3"
		},
		{
			"bufferView":104,
			"componentType":5126,
			"count":2312,
			"type":"VEC2"
		},
		{
			"bufferView":105,
			"componentType":5126,
			"count":2312,
			"type":"VEC2"
		},
		{
			"bufferView":106,
			"componentType":5126,
			"count":2312,
			"type":"VEC4"
		},
		{
			"bufferView":107,
			"componentType":5123,
			"count":4488,
			"type":"SCALAR"
		}
	],
	"bufferViews":[
		{
			"buffer":0,
			"byteLength":4896,
			"byteOffset":0,
			"target":34962
		},
		{
			"buffer":0,
			"byteLength":4896,
			"byteOffset":4896,
			"target":34962
		},
		{
			"buffer":0,
			"byteLength":3264,
			"byteOffset":9792,
			"target":34962
		},
		{
			"buffer":0,
			"byteLength":3264,
			"byteOffset":13056,
			"target":34962
		},
		{
			"buffer":0,
			"byteLength":6528,
			"byteOffset":16320,
			"target":34962
		},
		{
			"buffer":0,
			"byteLength":1584,
			"byteOffset":22848,
			"target":34963
		},
		{
			"buffer":0,
			"byteLength":5796,
			"byteOffset":24432,
			"target":34962
		},
		{
			"buffer":0,
			"byteLength":5796,
			"byteOffset":30228,
			"target":34962
		},
		{
			"buffer":0,
			"byteLength":3864,
			"byteOffset":36024,
			"target":34962
		},
		{
			"buffer":0,
			"byteLength":3864,
			"byteOffset":39888,
			"target":34962
		},
		{
			"buffer":0,
			"byteLength":7728,
			"byteOffset":43752,
			"target":34962
		},
		{
			"buffer":0,
			"byteLength":1620,
			"byteOffset":51480,
			"target":34963
		},
		{
			"buffer":0,
			"byteLength":1248,
			"byteOffset":53100,
			"target":34962
		},
		{
			"buffer":0,
			"byteLength":1248,
			"byteOffset":54348,
			"target":34962
		},
		{
			"buffer":0,
			"byteLength":832,
			"byteOffset":55596,
			"target":34962
		},
		{
			"buffer":0,
			"byteLength":832,
			"byteOffset":56428,
			"target":34962
		},
		{
			"buffer":0,
			"byteLength":1664,
			"byteOffset":57260,
			"target":34962
		},
		{
			"buffer":0,
			"byteLength":312,
			"byteOffset":58924,
			"target":34963
		},
		{
			"buffer":0,
			"byteLength":1728,
			"byteOffset":59236,
			"target":34962
		},
		{
			"buffer":0,
			"byteLength":1728,
			"byteOffset":60964,
			"target":34962
		},
		{
			"buffer":0,
			"byteLength":1152,
			"byteOffset":62692,
			"target":34962
		},
		{
			"buffer":0,
			"byteLength":1152,
			"byteOffset":63844,
			"target":34962
		},
		{
			"buffer":0,
			"byteLength":2304,
			"byteOffset":64996,
			"target":34962
		},
		{
			"buffer":0,
			"byteLength":504,
			"byteOffset":67300,
			"target":34963
		},
		{
			"buffer":0,
			"byteLength":1440,
			"byteOffset":67804,
			"target":34962
		},
		{
			"buffer":0,
			"byteLength":1440,
			"byteOffset":69244,
			"target":34962
		},
		{
			"buffer":0,
			"byteLength":960,
			"byteOffset":70684,
			"target":34962
		},
		{
			"buffer":0,
			"byteLength":960,
			"byteOffset":71644,
			"target":34962
		},
		{
			"buffer":0,
			"byteLength":1920,
			"byteOffset":72604,
			"target":34962
		},
		{
			"buffer":0,
			"byteLength":642,
			"byteOffset":74524,
			"target":34963
		},
		{
			"buffer":0,
			"byteLength":3180,
			"byteOffset":75168,
			"target":34962
		},
		{
			"buffer":0,
			"byteLength":3180,
			"byteOffset":78348,
			"target":34962
		},
		{
			"buffer":0,
			"byteLength":2120,
			"byteOffset":81528,
			"target":34962
		},
		{
			"buffer":0,
			"byteLength":2120,
			"byteOffset":83648,
			"target":34962
		},
		{
			"buffer":0,
			"byteLength":4240,
			"byteOffset":85768,
			"target":34962
		},
		{
			"buffer":0,
			"byteLength":1512,
			"byteOffset":90008,
			"target":34963
		},
		{
			"buffer":0,
			"byteLength":17952,
			"byteOffset":91520,
			"target":34962
		},
		{
			"buffer":0,
			"byteLength":17952,
			"byteOffset":109472,
			"target":34962
		},
		{
			"buffer":0,
			"byteLength":11968,
			"byteOffset":127424,
			"target":34962
		},
		{
			"buffer":0,
			"byteLength":11968,
			"byteOffset":139392,
			"target":34962
		},
		{
			"buffer":0,
			"byteLength":23936,
			"byteOffset":151360,
			"target":34962
		},
		{
			"buffer":0,
			"byteLength":4656,
			"byteOffset":175296,
			"target":34963
		},
		{
			"buffer":0,
			"byteLength":9660,
			"byteOffset":179952,
			"target":34962
		},
		{
			"buffer":0,
			"byteLength":9660,
			"byteOffset":189612,
			"target":34962
		},
		{
			"buffer":0,
			"byteLength":6440,
			"byteOffset":199272,
			"target":34962
		},
		{
			"buffer":0,
			"byteLength":6440,
			"byteOffset":205712,
			"target":34962
		},
		{
			"buffer":0,
			"byteLength":12880,
			"byteOffset":212152,
			"target":34962
		},
		{
			"buffer":0,
			"byteLength":2634,
			"byteOffset":225032,
			"target":34963
		},
		{
			"buffer":0,
			"byteLength":8640,
			"byteOffset":227668,
			"target":34962
		},
		{
			"buffer":0,
			"byteLength":8640,
			"byteOffset":236308,
			"target":34962
		},
		{
			"buffer":0,
			"byteLength":5760,
			"byteOffset":244948,
			"target":34962
		},
		{
			"buffer":0,
			"byteLength":5760,
			"byteOffset":250708,
			"target":34962
		},
		{
			"buffer":0,
			"byteLength":11520,
			"byteOffset":256468,
			"target":34962
		},
		{
			"buffer":0,
			"byteLength":2520,
			"byteOffset":267988,
			"target":34963
		},
		{
			"buffer":0,
			"byteLength":864,
			"byteOffset":270508,
			"target":34962
		},
		{
			"buffer":0,
			"byteLength":864,
			"byteOffset":271372,
			"target":34962
		},
		{
			"buffer":0,
			"byteLength":576,
			"byteOffset":272236,
			"target":34962
		},
		{
			"buffer":0,
			"byteLength":576,
			"byteOffset":272812,
			"target":34962
		},
		{
			"buffer":0,
			"byteLength":1152,
			"byteOffset":273388,
			"target":34962
		},
		{
			"buffer":0,
			"byteLength":216,
			"byteOffset":274540,
			"target":34963
		},
		{
			"buffer":0,
			"byteLength":2040,
			"byteOffset":274756,
			"target":34962
		},
		{
			"buffer":0,
			"byteLength":2040,
			"byteOffset":276796,
			"target":34962
		},
		{
			"buffer":0,
			"byteLength":1360,
			"byteOffset":278836,
			"target":34962
		},
		{
			"buffer":0,
			"byteLength":1360,
			"byteOffset":280196,
			"target":34962
		},
		{
			"buffer":0,
			"byteLength":2720,
			"byteOffset":281556,
			"target":34962
		},
		{
			"buffer":0,
			"byteLength":684,
			"byteOffset":284276,
			"target":34963
		},
		{
			"buffer":0,
			"byteLength":1500,
			"byteOffset":284960,
			"target":34962
		},
		{
			"buffer":0,
			"byteLength":1500,
			"byteOffset":286460,
			"target":34962
		},
		{
			"buffer":0,
			"byteLength":1000,
			"byteOffset":287960,
			"target":34962
		},
		{
			"buffer":0,
			"byteLength":1000,
			"byteOffset":288960,
			"target":34962
		},
		{
			"buffer":0,
			"byteLength":2000,
			"byteOffset":289960,
			"target":34962
		},
		{
			"buffer":0,
			"byteLength":612,
			"byteOffset":291960,
			"target":34963
		},
		{
			"buffer":0,
			"byteLength":3168,
			"byteOffset":292572,
			"target":34962
		},
		{
			"buffer":0,
			"byteLength":3168,
			"byteOffset":295740,
			"target":34962
		},
		{
			"buffer":0,
			"byteLength":2112,
			"byteOffset":298908,
			"target":34962
		},
		{
			"buffer":0,
			"byteLength":2112,
			"byteOffset":301020,
			"target":34962
		},
		{
			"buffer":0,
			"byteLength":4224,
			"byteOffset":303132,
			"target":34962
		},
		{
			"buffer":0,
			"byteLength":912,
			"byteOffset":307356,
			"target":34963
		},
		{
			"buffer":0,
			"byteLength":5760,
			"byteOffset":308268,
			"target":34962
		},
		{
			"buffer":0,
			"byteLength":5760,
			"byteOffset":314028,
			"target":34962
		},
		{
			"buffer":0,
			"byteLength":3840,
			"byteOffset":319788,
			"target":34962
		},
		{
			"buffer":0,
			"byteLength":3840,
			"byteOffset":323628,
			"target":34962
		},
		{
			"buffer":0,
			"byteLength":7680,
			"byteOffset":327468,
			"target":34962
		},
		{
			"buffer":0,
			"byteLength":1440,
			"byteOffset":335148,
			"target":34963
		},
		{
			"buffer":0,
			"byteLength":5748,
			"byteOffset":336588,
			"target":34962
		},
		{
			"buffer":0,
			"byteLength":5748,
			"byteOffset":342336,
			"target":34962
		},
		{
			"buffer":0,
			"byteLength":3832,
			"byteOffset":348084,
			"target":34962
		},
		{
			"buffer":0,
			"byteLength":3832,
			"byteOffset":351916,
			"target":34962
		},
		{
			"buffer":0,
			"byteLength":7664,
			"byteOffset":355748,
			"target":34962
		},
		{
			"buffer":0,
			"byteLength":1632,
			"byteOffset":363412,
			"target":34963
		},
		{
			"buffer":0,
			"byteLength":1716,
			"byteOffset":365044,
			"target":34962
		},
		{
			"buffer":0,
			"byteLength":1716,
			"byteOffset":366760,
			"target":34962
		},
		{
			"buffer":0,
			"byteLength":1144,
			"byteOffset":368476,
			"target":34962
		},
		{
			"buffer":0,
			"byteLength":1144,
			"byteOffset":369620,
			"target":34962
		},
		{
			"buffer":0,
			"byteLength":2288,
			"byteOffset":370764,
			"target":34962
		},
		{
			"buffer":0,
			"byteLength":1296,
			"byteOffset":373052,
			"target":34963
		},
		{
			"buffer":0,
			"byteLength":14256,
			"byteOffset":374348,
			"target":34962
		},
		{
			"buffer":0,
			"byteLength":14256,
			"byteOffset":388604,
			"target":34962
		},
		{
			"buffer":0,
			"byteLength":9504,
			"byteOffset":402860,
			"target":34962
		},
		{
			"buffer":0,
			"byteLength":9504,
			"byteOffset":412364,
			"target":34962
		},
		{
			"buffer":0,
			"byteLength":19008,
			"byteOffset":421868,
			"target":34962
		},
		{
			"buffer":0,
			"byteLength":4104,
			"byteOffset":440876,
			"target":34963
		},
		{
			"buffer":0,
			"byteLength":27744,
			"byteOffset":444980,
			"target":34962
		},
		{
			"buffer":0,
			"byteLength":27744,
			"byteOffset":472724,
			"target":34962
		},
		{
			"buffer":0,
			"byteLength":18496,
			"byteOffset":500468,
			"target":34962
		},
		{
			"buffer":0,
			"byteLength":18496,
			"byteOffset":518964,
			"target":34962
		},
		{
			"buffer":0,
			"byteLength":36992,
			"byteOffset":537460,
			"target":34962
		},
		{
			"buffer":0,
			"byteLength":8976,
			"byteOffset":574452,
			"target":34963
		}
	],
	"buffers":[
		{
			"byteLength":583428,
			"uri":"AllToppings-9c6c41a970b5d5f3f29f6f328aa730c1.bin"
		}
	]
}
