{
	"asset":{
		"generator":"Khronos glTF Blender I/O v5.1.20",
		"version":"2.0"
	},
	"scene":0,
	"scenes":[
		{
			"name":"Scene",
			"nodes":[
				0
			]
		}
	],
	"nodes":[
		{
			"mesh":0,
			"name":"Cylinder",
			"scale":[
				0.23931244015693665,
				0.23931244015693665,
				0.23931244015693665
			]
		}
	],
	"materials":[
		{
			"doubleSided":true,
			"name":"Cap",
			"pbrMetallicRoughness":{
				"baseColorFactor":[
					0.10702239722013474,
					0,
					0,
					1
				],
				"metallicFactor":0,
				"roughnessFactor":0.5
			}
		},
		{
			"doubleSided":true,
			"name":"Bottle",
			"pbrMetallicRoughness":{
				"baseColorFactor":[
					0.024158034473657608,
					0,
					0,
					1
				],
				"metallicFactor":0,
				"roughnessFactor":0.5
			}
		},
		{
			"doubleSided":true,
			"name":"Label",
			"pbrMetallicRoughness":{
				"baseColorTexture":{
					"index":0
				},
				"metallicFactor":0,
				"roughnessFactor":0.5
			}
		}
	],
	"meshes":[
		{
			"name":"Mesh",
			"primitives":[
				{
					"attributes":{
						"POSITION":0,
						"NORMAL":1,
						"TEXCOORD_0":2,
						"TANGENT":3
					},
					"indices":4,
					"material":0
				},
				{
					"attributes":{
						"POSITION":5,
						"NORMAL":6,
						"TEXCOORD_0":7,
						"TANGENT":8
					},
					"indices":9,
					"material":1
				},
				{
					"attributes":{
						"POSITION":10,
						"NORMAL":11,
						"TEXCOORD_0":12,
						"TANGENT":13
					},
					"indices":14,
					"material":2
				}
			]
		}
	],
	"textures":[
		{
			"sampler":0,
			"source":0
		}
	],
	"images":[
		{
			"mimeType":"image/png",
			"name":"frenchwinebottle.png",
			"uri":"../../assets/Meshes/textures/frenchwinebottle.png"
		}
	],
	"accessors":[
		{
			"bufferView":0,
			"componentType":5126,
			"count":1089,
			"max":[
				0.2170594185590744,
				3.9980759620666504,
				0.305068701505661
			],
			"min":[
				-0.3930774927139282,
				2.5911829471588135,
				-0.3050682842731476
			],
			"type":"VEC3"
		},
		{
			"bufferView":1,
			"componentType":5126,
			"count":1089,
			"type":"VEC3"
		},
		{
			"bufferView":2,
			"componentType":5126,
			"count":1089,
			"type":"VEC2"
		},
		{
			"bufferView":3,
			"componentType":5126,
			"count":1089,
			"type":"VEC4"
		},
		{
			"bufferView":4,
			"componentType":5123,
			"count":6336,
			"type":"SCALAR"
		},
		{
			"bufferView":5,
			"componentType":5126,
			"count":1722,
			"max":[
				0.6063278913497925,
				2.5911829471588135,
				0.6944554448127747
			],
			"min":[
				-0.7825825214385986,
				-1.2360405921936035,
				-0.6944549679756165
			],
			"type":"VEC3"
		},
		{
			"bufferView":6,
			"componentType":5126,
			"count":1722,
			"type":"VEC3"
		},
		{
			"bufferView":7,
			"componentType":5126,
			"count":1722,
			"type":"VEC2"
		},
		{
			"bufferView":8,
			"componentType":5126,
			"count":1722,
			"type":"VEC4"
		},
		{
			"bufferView":9,
			"componentType":5123,
			"count":7104,
			"type":"SCALAR"
		},
		{
			"bufferView":10,
			"componentType":5126,
			"count":212,
			"max":[
				0.6012997031211853,
				1.4275364875793457,
				0.6902552843093872
			],
			"min":[
				-0.7792103886604309,
				0.06185326352715492,
				-0.690254807472229
			],
			"type":"VEC3"
		},
		{
			"bufferView":11,
			"componentType":5126,
			"count":212,
			"type":"VEC3"
		},
		{
			"bufferView":12,
			"componentType":5126,
			"count":212,
			"type":"VEC2"
		},
		{
			"bufferView":13,
			"componentType":5126,
			"count":212,
			"type":"VEC4"
		},
		{
			"bufferView":14,
			"componentType":5123,
			"count":768,
			"type":"SCALAR"
		}
	],
	"bufferViews":[
		{
			"buffer":0,
			"byteLength":13068,
			"byteOffset":0,
			"target":34962
		},
		{
			"buffer":0,
			"byteLength":13068,
			"byteOffset":13068,
			"target":34962
		},
		{
			"buffer":0,
			"byteLength":8712,
			"byteOffset":26136,
			"target":34962
		},
		{
			"buffer":0,
			"byteLength":17424,
			"byteOffset":34848,
			"target":34962
		},
		{
			"buffer":0,
			"byteLength":12672,
			"byteOffset":52272,
			"target":34963
		},
		{
			"buffer":0,
			"byteLength":20664,
			"byteOffset":64944,
			"target":34962
		},
		{
			"buffer":0,
			"byteLength":20664,
			"byteOffset":85608,
			"target":34962
		},
		{
			"buffer":0,
			"byteLength":13776,
			"byteOffset":106272,
			"target":34962
		},
		{
			"buffer":0,
			"byteLength":27552,
			"byteOffset":120048,
			"target":34962
		},
		{
			"buffer":0,
			"byteLength":14208,
			"byteOffset":147600,
			"target":34963
		},
		{
			"buffer":0,
			"byteLength":2544,
			"byteOffset":161808,
			"target":34962
		},
		{
			"buffer":0,
			"byteLength":2544,
			"byteOffset":164352,
			"target":34962
		},
		{
			"buffer":0,
			"byteLength":1696,
			"byteOffset":166896,
			"target":34962
		},
		{
			"buffer":0,
			"byteLength":3392,
			"byteOffset":168592,
			"target":34962
		},
		{
			"buffer":0,
			"byteLength":1536,
			"byteOffset":171984,
			"target":34963
		}
	],
	"samplers":[
		{
			"magFilter":9729,
			"minFilter":9987
		}
	],
	"buffers":[
		{
			"byteLength":173520,
			"uri":"Bottle-fc15a02816e68edc5a5b05e42c13274b.bin"
		}
	]
}
