{
	"asset":{
		"generator":"Khronos glTF Blender I/O v5.1.20",
		"version":"2.0"
	},
	"scene":0,
	"scenes":[
		{
			"name":"Scene",
			"nodes":[
				2
			]
		}
	],
	"nodes":[
		{
			"mesh":0,
			"name":"pCylinderShape1"
		},
		{
			"children":[
				0
			],
			"name":"pCylinder1",
			"rotation":[
				-0.10760309547185898,
				0,
				0,
				0.9941939115524292
			],
			"scale":[
				0.006193322595208883,
				0.005883425939828157,
				0.02564087323844433
			],
			"translation":[
				-1.0931605100631714,
				-0.6152174472808838,
				0.09265508502721786
			]
		},
		{
			"children":[
				1
			],
			"name":"brecheisen_23_aug",
			"rotation":[
				0,
				-1,
				0,
				4.371138828673793e-08
			],
			"translation":[
				-1.0924384593963623,
				0.6141675114631653,
				0.09565718472003937
			]
		}
	],
	"materials":[
		{
			"alphaMode":"BLEND",
			"doubleSided":true,
			"name":"lambert_pCylinderShape1",
			"pbrMetallicRoughness":{
				"metallicFactor":0,
				"roughnessFactor":0.5
			}
		}
	],
	"meshes":[
		{
			"name":"pCylinderShape1",
			"primitives":[
				{
					"attributes":{
						"POSITION":0,
						"NORMAL":1,
						"TEXCOORD_0":2,
						"TANGENT":3
					},
					"indices":4,
					"material":0
				}
			]
		}
	],
	"accessors":[
		{
			"bufferView":0,
			"componentType":5126,
			"count":108,
			"max":[
				1.6293647289276123,
				3.5963878631591797,
				2.0890307426452637
			],
			"min":[
				-1.396173119544983,
				-2.959102153778076,
				-1.8172886371612549
			],
			"type":"VEC3"
		},
		{
			"bufferView":1,
			"componentType":5126,
			"count":108,
			"type":"VEC3"
		},
		{
			"bufferView":2,
			"componentType":5126,
			"count":108,
			"type":"VEC2"
		},
		{
			"bufferView":3,
			"componentType":5126,
			"count":108,
			"type":"VEC4"
		},
		{
			"bufferView":4,
			"componentType":5123,
			"count":120,
			"type":"SCALAR"
		}
	],
	"bufferViews":[
		{
			"buffer":0,
			"byteLength":1296,
			"byteOffset":0,
			"target":34962
		},
		{
			"buffer":0,
			"byteLength":1296,
			"byteOffset":1296,
			"target":34962
		},
		{
			"buffer":0,
			"byteLength":864,
			"byteOffset":2592,
			"target":34962
		},
		{
			"buffer":0,
			"byteLength":1728,
			"byteOffset":3456,
			"target":34962
		},
		{
			"buffer":0,
			"byteLength":240,
			"byteOffset":5184,
			"target":34963
		}
	],
	"buffers":[
		{
			"byteLength":5424,
			"uri":"Brecheisen-06b6bb8949bf9e677e5ccb6143de4edc.bin"
		}
	]
}
