{
	"asset":{
		"generator":"Khronos glTF Blender I/O v5.1.20",
		"version":"2.0"
	},
	"scene":0,
	"scenes":[
		{
			"extras":{
				"psx_export":{}
			},
			"name":"Scene",
			"nodes":[
				0,
				1
			]
		}
	],
	"nodes":[
		{
			"mesh":0,
			"name":"Door",
			"rotation":[
				0,
				-0.7071068286895752,
				0,
				0.7071068286895752
			],
			"scale":[
				0.06881342828273773,
				2.01010799407959,
				1
			],
			"translation":[
				-0.8693336248397827,
				1.9338678121566772,
				0.05480974167585373
			]
		},
		{
			"mesh":1,
			"name":"DoorFrame",
			"rotation":[
				0,
				-0.7071068286895752,
				0,
				0.7071068286895752
			],
			"scale":[
				0.06881342828273773,
				2.01010799407959,
				1
			],
			"translation":[
				0.05480974167585373,
				2.164179563522339,
				-0.054809682071208954
			]
		}
	],
	"animations":[
		{
			"channels":[
				{
					"sampler":0,
					"target":{
						"node":0,
						"path":"rotation"
					}
				}
			],
			"name":"Action",
			"samplers":[
				{
					"input":9,
					"interpolation":"LINEAR",
					"output":10
				}
			]
		}
	],
	"materials":[
		{
			"doubleSided":true,
			"extras":{
				"mmd_material":{},
				"psk":{}
			},
			"name":"Wood",
			"pbrMetallicRoughness":{
				"baseColorFactor":[
					0.2505936026573181,
					0.08698371797800064,
					0.03373495861887932,
					1
				],
				"metallicFactor":0,
				"roughnessFactor":0.5
			}
		}
	],
	"meshes":[
		{
			"name":"Cube.001",
			"primitives":[
				{
					"attributes":{
						"POSITION":0,
						"NORMAL":1,
						"TEXCOORD_0":2,
						"TANGENT":3
					},
					"indices":4,
					"material":0
				}
			]
		},
		{
			"name":"Cube",
			"primitives":[
				{
					"attributes":{
						"POSITION":5,
						"NORMAL":6,
						"TEXCOORD_0":7
					},
					"indices":8,
					"material":0
				}
			]
		}
	],
	"accessors":[
		{
			"bufferView":0,
			"componentType":5126,
			"count":24,
			"max":[
				0.5929951071739197,
				0.9620717763900757,
				1.1920928955078125e-07
			],
			"min":[
				-0.5929946899414062,
				-0.9620717763900757,
				-1.8482869863510132
			],
			"type":"VEC3"
		},
		{
			"bufferView":1,
			"componentType":5126,
			"count":24,
			"type":"VEC3"
		},
		{
			"bufferView":2,
			"componentType":5126,
			"count":24,
			"type":"VEC2"
		},
		{
			"bufferView":3,
			"componentType":5126,
			"count":24,
			"type":"VEC4"
		},
		{
			"bufferView":4,
			"componentType":5123,
			"count":36,
			"type":"SCALAR"
		},
		{
			"bufferView":5,
			"componentType":5126,
			"count":64,
			"max":[
				1,
				0.923351526260376,
				1
			],
			"min":[
				-1,
				-1.076648473739624,
				-1
			],
			"type":"VEC3"
		},
		{
			"bufferView":6,
			"componentType":5126,
			"count":64,
			"type":"VEC3"
		},
		{
			"bufferView":7,
			"componentType":5126,
			"count":64,
			"type":"VEC2"
		},
		{
			"bufferView":8,
			"componentType":5123,
			"count":120,
			"type":"SCALAR"
		},
		{
			"bufferView":9,
			"componentType":5126,
			"count":30,
			"max":[
				0.5
			],
			"min":[
				0.016666666666666666
			],
			"type":"SCALAR"
		},
		{
			"bufferView":10,
			"componentType":5126,
			"count":30,
			"type":"VEC4"
		}
	],
	"bufferViews":[
		{
			"buffer":0,
			"byteLength":288,
			"byteOffset":0,
			"target":34962
		},
		{
			"buffer":0,
			"byteLength":288,
			"byteOffset":288,
			"target":34962
		},
		{
			"buffer":0,
			"byteLength":192,
			"byteOffset":576,
			"target":34962
		},
		{
			"buffer":0,
			"byteLength":384,
			"byteOffset":768,
			"target":34962
		},
		{
			"buffer":0,
			"byteLength":72,
			"byteOffset":1152,
			"target":34963
		},
		{
			"buffer":0,
			"byteLength":768,
			"byteOffset":1224,
			"target":34962
		},
		{
			"buffer":0,
			"byteLength":768,
			"byteOffset":1992,
			"target":34962
		},
		{
			"buffer":0,
			"byteLength":512,
			"byteOffset":2760,
			"target":34962
		},
		{
			"buffer":0,
			"byteLength":240,
			"byteOffset":3272,
			"target":34963
		},
		{
			"buffer":0,
			"byteLength":120,
			"byteOffset":3512
		},
		{
			"buffer":0,
			"byteLength":480,
			"byteOffset":3632
		}
	],
	"buffers":[
		{
			"byteLength":4112,
			"uri":"Door-a4d82342a3277ce4fc166f6dddb92d10.bin"
		}
	]
}
