{
	"asset":{
		"generator":"Khronos glTF Blender I/O v5.1.19",
		"version":"2.0"
	},
	"scene":0,
	"scenes":[
		{
			"name":"Scene",
			"nodes":[
				0,
				1,
				2,
				3,
				4,
				5,
				6,
				7,
				8,
				9,
				10,
				11,
				12,
				13,
				14,
				15
			]
		}
	],
	"nodes":[
		{
			"mesh":0,
			"name":"Plane",
			"scale":[
				5.044653415679932,
				5.044653415679932,
				5.044653415679932
			]
		},
		{
			"mesh":1,
			"name":"Regal.003",
			"rotation":[
				0,
				-1,
				0,
				1.6292068494294654e-07
			],
			"scale":[
				-0.11259440332651138,
				-1.7817319631576538,
				-0.11259440332651138
			],
			"translation":[
				2.401763439178467,
				1.7817325592041016,
				-4.443750381469727
			]
		},
		{
			"mesh":2,
			"name":"Regal.001",
			"rotation":[
				0,
				-1,
				0,
				1.6292068494294654e-07
			],
			"scale":[
				-0.11259440332651138,
				-1.7817319631576538,
				-0.11259440332651138
			],
			"translation":[
				9.747389793395996,
				1.7817325592041016,
				-4.443750381469727
			]
		},
		{
			"mesh":3,
			"name":"Regal.002",
			"rotation":[
				0,
				-1,
				0,
				1.6292068494294654e-07
			],
			"scale":[
				-0.11259440332651138,
				-1.7817319631576538,
				-0.11259440332651138
			],
			"translation":[
				18.30596923828125,
				1.7817325592041016,
				-4.443750381469727
			]
		},
		{
			"mesh":4,
			"name":"Regal.004",
			"rotation":[
				0,
				-1,
				0,
				1.6292068494294654e-07
			],
			"scale":[
				-0.11259440332651138,
				-1.7817319631576538,
				-0.11259440332651138
			],
			"translation":[
				18.30596923828125,
				1.7817325592041016,
				1.8247332572937012
			]
		},
		{
			"mesh":5,
			"name":"Regal.005",
			"rotation":[
				0,
				-1,
				0,
				1.6292068494294654e-07
			],
			"scale":[
				-0.11259440332651138,
				-1.7817319631576538,
				-0.11259440332651138
			],
			"translation":[
				9.74738883972168,
				1.7817325592041016,
				1.7119274139404297
			]
		},
		{
			"mesh":6,
			"name":"Regal.006",
			"rotation":[
				0,
				-1,
				0,
				1.6292068494294654e-07
			],
			"scale":[
				-0.11259440332651138,
				-1.7817319631576538,
				-0.11259440332651138
			],
			"translation":[
				2.401763439178467,
				1.7817325592041016,
				1.847799301147461
			]
		},
		{
			"mesh":7,
			"name":"Cube",
			"translation":[
				19.326282501220703,
				1.0236049890518188,
				-14.334392547607422
			]
		},
		{
			"mesh":7,
			"name":"Crate",
			"translation":[
				19.326282501220703,
				1.0236049890518188,
				-12.124044418334961
			]
		},
		{
			"mesh":8,
			"name":"Cube.002",
			"translation":[
				19.28690528869629,
				3.0236053466796875,
				-13.53525447845459
			]
		},
		{
			"mesh":9,
			"name":"Regal.007",
			"rotation":[
				0,
				-1,
				0,
				1.6292068494294654e-07
			],
			"scale":[
				-0.11259440332651138,
				-1.7817319631576538,
				-0.11259440332651138
			],
			"translation":[
				14.123562812805176,
				1.7817325592041016,
				-4.443750381469727
			]
		},
		{
			"mesh":10,
			"name":"Regal.008",
			"rotation":[
				0,
				-1,
				0,
				1.6292068494294654e-07
			],
			"scale":[
				-0.11259440332651138,
				-1.7817319631576538,
				-0.11259440332651138
			],
			"translation":[
				14.12356185913086,
				1.7817325592041016,
				1.7119274139404297
			]
		},
		{
			"mesh":11,
			"name":"Cube.003",
			"scale":[
				1,
				1,
				2.702315092086792
			],
			"translation":[
				-5.190793514251709,
				1.000002384185791,
				-3.6728203296661377
			]
		},
		{
			"mesh":12,
			"name":"Regal.009",
			"rotation":[
				0,
				-1,
				0,
				1.6292068494294654e-07
			],
			"scale":[
				-0.11259440332651138,
				-1.7817319631576538,
				-0.11259440332651138
			],
			"translation":[
				5.9507060050964355,
				1.7817325592041016,
				-4.443750381469727
			]
		},
		{
			"mesh":13,
			"name":"Regal.010",
			"rotation":[
				0,
				-1,
				0,
				1.6292068494294654e-07
			],
			"scale":[
				-0.11259440332651138,
				-1.7817319631576538,
				-0.11259440332651138
			],
			"translation":[
				5.9507060050964355,
				1.7817325592041016,
				1.847799301147461
			]
		},
		{
			"mesh":14,
			"name":"Roof",
			"scale":[
				5.044653415679932,
				5.044653415679932,
				5.044653415679932
			]
		}
	],
	"materials":[
		{
			"doubleSided":true,
			"name":"Floor",
			"pbrMetallicRoughness":{
				"baseColorFactor":[
					0.8000229597091675,
					0.5323076844215393,
					0.24116680026054382,
					1
				],
				"metallicFactor":0,
				"roughnessFactor":0.5
			}
		},
		{
			"doubleSided":true,
			"name":"Walls",
			"pbrMetallicRoughness":{
				"baseColorFactor":[
					0.800000011920929,
					0.800000011920929,
					0.800000011920929,
					1
				],
				"metallicFactor":0,
				"roughnessFactor":0.5
			}
		},
		{
			"doubleSided":true,
			"name":"Metal",
			"pbrMetallicRoughness":{
				"baseColorFactor":[
					0.053425826132297516,
					0.053425826132297516,
					0.053425826132297516,
					1
				],
				"roughnessFactor":0.30000001192092896
			}
		},
		{
			"doubleSided":true,
			"name":"Crate",
			"pbrMetallicRoughness":{
				"baseColorFactor":[
					0.17660218477249146,
					0.06396147608757019,
					0.02452416718006134,
					1
				],
				"metallicFactor":0,
				"roughnessFactor":0.800000011920929
			}
		}
	],
	"meshes":[
		{
			"name":"Plane",
			"primitives":[
				{
					"attributes":{
						"POSITION":0,
						"NORMAL":1,
						"TEXCOORD_0":2
					},
					"indices":3,
					"material":0
				},
				{
					"attributes":{
						"POSITION":4,
						"NORMAL":5,
						"TEXCOORD_0":6
					},
					"indices":7,
					"material":1
				}
			]
		},
		{
			"name":"Cube.023",
			"primitives":[
				{
					"attributes":{
						"POSITION":8,
						"NORMAL":9,
						"TEXCOORD_0":10,
						"TANGENT":11
					},
					"indices":12,
					"material":2
				}
			]
		},
		{
			"name":"Cube.002",
			"primitives":[
				{
					"attributes":{
						"POSITION":13,
						"NORMAL":14,
						"TEXCOORD_0":15,
						"TANGENT":16
					},
					"indices":12,
					"material":2
				}
			]
		},
		{
			"name":"Cube.003",
			"primitives":[
				{
					"attributes":{
						"POSITION":17,
						"NORMAL":18,
						"TEXCOORD_0":19,
						"TANGENT":20
					},
					"indices":12,
					"material":2
				}
			]
		},
		{
			"name":"Cube.004",
			"primitives":[
				{
					"attributes":{
						"POSITION":21,
						"NORMAL":22,
						"TEXCOORD_0":23,
						"TANGENT":24
					},
					"indices":12,
					"material":2
				}
			]
		},
		{
			"name":"Cube.005",
			"primitives":[
				{
					"attributes":{
						"POSITION":25,
						"NORMAL":26,
						"TEXCOORD_0":27,
						"TANGENT":28
					},
					"indices":12,
					"material":2
				}
			]
		},
		{
			"name":"Cube.006",
			"primitives":[
				{
					"attributes":{
						"POSITION":29,
						"NORMAL":30,
						"TEXCOORD_0":31,
						"TANGENT":32
					},
					"indices":12,
					"material":2
				}
			]
		},
		{
			"name":"Cube.007",
			"primitives":[
				{
					"attributes":{
						"POSITION":33,
						"NORMAL":34,
						"TEXCOORD_0":35,
						"TANGENT":36
					},
					"indices":37,
					"material":3
				}
			]
		},
		{
			"name":"Cube.007",
			"primitives":[
				{
					"attributes":{
						"POSITION":38,
						"NORMAL":39,
						"TEXCOORD_0":40,
						"TANGENT":41
					},
					"indices":42,
					"material":3
				}
			]
		},
		{
			"name":"Cube.010",
			"primitives":[
				{
					"attributes":{
						"POSITION":43,
						"NORMAL":44,
						"TEXCOORD_0":45,
						"TANGENT":46
					},
					"indices":12,
					"material":2
				}
			]
		},
		{
			"name":"Cube.011",
			"primitives":[
				{
					"attributes":{
						"POSITION":47,
						"NORMAL":48,
						"TEXCOORD_0":49,
						"TANGENT":50
					},
					"indices":12,
					"material":2
				}
			]
		},
		{
			"name":"Cube.012",
			"primitives":[
				{
					"attributes":{
						"POSITION":51,
						"NORMAL":52,
						"TEXCOORD_0":53,
						"TANGENT":54
					},
					"indices":55
				}
			]
		},
		{
			"name":"Cube.013",
			"primitives":[
				{
					"attributes":{
						"POSITION":56,
						"NORMAL":57,
						"TEXCOORD_0":58,
						"TANGENT":59
					},
					"indices":12,
					"material":2
				}
			]
		},
		{
			"name":"Cube.014",
			"primitives":[
				{
					"attributes":{
						"POSITION":60,
						"NORMAL":61,
						"TEXCOORD_0":62,
						"TANGENT":63
					},
					"indices":12,
					"material":2
				}
			]
		},
		{
			"name":"Plane.001",
			"primitives":[
				{
					"attributes":{
						"POSITION":64,
						"NORMAL":65,
						"TEXCOORD_0":66
					},
					"indices":67
				}
			]
		}
	],
	"accessors":[
		{
			"bufferView":0,
			"componentType":5126,
			"count":50,
			"max":[
				4.039123058319092,
				0.005756519269198179,
				1.0099999904632568
			],
			"min":[
				-1.6697324514389038,
				-0.02316216379404068,
				-3.045987129211426
			],
			"type":"VEC3"
		},
		{
			"bufferView":1,
			"componentType":5126,
			"count":50,
			"type":"VEC3"
		},
		{
			"bufferView":2,
			"componentType":5126,
			"count":50,
			"type":"VEC2"
		},
		{
			"bufferView":3,
			"componentType":5123,
			"count":84,
			"type":"SCALAR"
		},
		{
			"bufferView":4,
			"componentType":5126,
			"count":148,
			"max":[
				4.040421009063721,
				1.1208314895629883,
				1.0099999904632568
			],
			"min":[
				-1.6710295677185059,
				-0.02316216379404068,
				-3.045987129211426
			],
			"type":"VEC3"
		},
		{
			"bufferView":5,
			"componentType":5126,
			"count":148,
			"type":"VEC3"
		},
		{
			"bufferView":6,
			"componentType":5126,
			"count":148,
			"type":"VEC2"
		},
		{
			"bufferView":7,
			"componentType":5123,
			"count":294,
			"type":"SCALAR"
		},
		{
			"bufferView":8,
			"componentType":5126,
			"count":275,
			"max":[
				14.28913688659668,
				1.0000001192092896,
				27.046308517456055
			],
			"min":[
				-0.2198314517736435,
				-1,
				-0.39656490087509155
			],
			"type":"VEC3"
		},
		{
			"bufferView":9,
			"componentType":5126,
			"count":275,
			"type":"VEC3"
		},
		{
			"bufferView":10,
			"componentType":5126,
			"count":275,
			"type":"VEC2"
		},
		{
			"bufferView":11,
			"componentType":5126,
			"count":275,
			"type":"VEC4"
		},
		{
			"bufferView":12,
			"componentType":5123,
			"count":480,
			"type":"SCALAR"
		},
		{
			"bufferView":13,
			"componentType":5126,
			"count":275,
			"max":[
				14.28913688659668,
				1.0000001192092896,
				27.046308517456055
			],
			"min":[
				-0.2198314517736435,
				-1,
				-0.39656490087509155
			],
			"type":"VEC3"
		},
		{
			"bufferView":14,
			"componentType":5126,
			"count":275,
			"type":"VEC3"
		},
		{
			"bufferView":15,
			"componentType":5126,
			"count":275,
			"type":"VEC2"
		},
		{
			"bufferView":16,
			"componentType":5126,
			"count":275,
			"type":"VEC4"
		},
		{
			"bufferView":17,
			"componentType":5126,
			"count":275,
			"max":[
				14.28913688659668,
				1.0000001192092896,
				27.046308517456055
			],
			"min":[
				-0.2198314517736435,
				-1,
				-0.39656490087509155
			],
			"type":"VEC3"
		},
		{
			"bufferView":18,
			"componentType":5126,
			"count":275,
			"type":"VEC3"
		},
		{
			"bufferView":19,
			"componentType":5126,
			"count":275,
			"type":"VEC2"
		},
		{
			"bufferView":20,
			"componentType":5126,
			"count":275,
			"type":"VEC4"
		},
		{
			"bufferView":21,
			"componentType":5126,
			"count":275,
			"max":[
				14.28913688659668,
				1.0000001192092896,
				27.046308517456055
			],
			"min":[
				-0.2198314517736435,
				-1,
				-0.39656490087509155
			],
			"type":"VEC3"
		},
		{
			"bufferView":22,
			"componentType":5126,
			"count":275,
			"type":"VEC3"
		},
		{
			"bufferView":23,
			"componentType":5126,
			"count":275,
			"type":"VEC2"
		},
		{
			"bufferView":24,
			"componentType":5126,
			"count":275,
			"type":"VEC4"
		},
		{
			"bufferView":25,
			"componentType":5126,
			"count":275,
			"max":[
				14.28913688659668,
				1.0000001192092896,
				27.046308517456055
			],
			"min":[
				-0.2198314517736435,
				-1,
				-0.39656490087509155
			],
			"type":"VEC3"
		},
		{
			"bufferView":26,
			"componentType":5126,
			"count":275,
			"type":"VEC3"
		},
		{
			"bufferView":27,
			"componentType":5126,
			"count":275,
			"type":"VEC2"
		},
		{
			"bufferView":28,
			"componentType":5126,
			"count":275,
			"type":"VEC4"
		},
		{
			"bufferView":29,
			"componentType":5126,
			"count":275,
			"max":[
				14.28913688659668,
				1.0000001192092896,
				27.046308517456055
			],
			"min":[
				-0.2198314517736435,
				-1,
				-0.39656490087509155
			],
			"type":"VEC3"
		},
		{
			"bufferView":30,
			"componentType":5126,
			"count":275,
			"type":"VEC3"
		},
		{
			"bufferView":31,
			"componentType":5126,
			"count":275,
			"type":"VEC2"
		},
		{
			"bufferView":32,
			"componentType":5126,
			"count":275,
			"type":"VEC4"
		},
		{
			"bufferView":33,
			"componentType":5126,
			"count":600,
			"max":[
				1.0005475282669067,
				1,
				1
			],
			"min":[
				-1.0005475282669067,
				-1,
				-1
			],
			"type":"VEC3"
		},
		{
			"bufferView":34,
			"componentType":5126,
			"count":600,
			"type":"VEC3"
		},
		{
			"bufferView":35,
			"componentType":5126,
			"count":600,
			"type":"VEC2"
		},
		{
			"bufferView":36,
			"componentType":5126,
			"count":600,
			"type":"VEC4"
		},
		{
			"bufferView":37,
			"componentType":5123,
			"count":972,
			"type":"SCALAR"
		},
		{
			"bufferView":38,
			"componentType":5126,
			"count":1200,
			"max":[
				1.0005475282669067,
				1,
				1
			],
			"min":[
				-1.0005475282669067,
				-1,
				-1
			],
			"type":"VEC3"
		},
		{
			"bufferView":39,
			"componentType":5126,
			"count":1200,
			"type":"VEC3"
		},
		{
			"bufferView":40,
			"componentType":5126,
			"count":1200,
			"type":"VEC2"
		},
		{
			"bufferView":41,
			"componentType":5126,
			"count":1200,
			"type":"VEC4"
		},
		{
			"bufferView":42,
			"componentType":5123,
			"count":1944,
			"type":"SCALAR"
		},
		{
			"bufferView":43,
			"componentType":5126,
			"count":275,
			"max":[
				14.28913688659668,
				1.0000001192092896,
				27.046308517456055
			],
			"min":[
				-0.2198314517736435,
				-1,
				-0.39656490087509155
			],
			"type":"VEC3"
		},
		{
			"bufferView":44,
			"componentType":5126,
			"count":275,
			"type":"VEC3"
		},
		{
			"bufferView":45,
			"componentType":5126,
			"count":275,
			"type":"VEC2"
		},
		{
			"bufferView":46,
			"componentType":5126,
			"count":275,
			"type":"VEC4"
		},
		{
			"bufferView":47,
			"componentType":5126,
			"count":275,
			"max":[
				14.28913688659668,
				1.0000001192092896,
				27.046308517456055
			],
			"min":[
				-0.2198314517736435,
				-1,
				-0.39656490087509155
			],
			"type":"VEC3"
		},
		{
			"bufferView":48,
			"componentType":5126,
			"count":275,
			"type":"VEC3"
		},
		{
			"bufferView":49,
			"componentType":5126,
			"count":275,
			"type":"VEC2"
		},
		{
			"bufferView":50,
			"componentType":5126,
			"count":275,
			"type":"VEC4"
		},
		{
			"bufferView":51,
			"componentType":5126,
			"count":24,
			"max":[
				1,
				1,
				1
			],
			"min":[
				-1,
				-1,
				-1
			],
			"type":"VEC3"
		},
		{
			"bufferView":52,
			"componentType":5126,
			"count":24,
			"type":"VEC3"
		},
		{
			"bufferView":53,
			"componentType":5126,
			"count":24,
			"type":"VEC2"
		},
		{
			"bufferView":54,
			"componentType":5126,
			"count":24,
			"type":"VEC4"
		},
		{
			"bufferView":55,
			"componentType":5123,
			"count":36,
			"type":"SCALAR"
		},
		{
			"bufferView":56,
			"componentType":5126,
			"count":275,
			"max":[
				14.28913688659668,
				1.0000001192092896,
				27.046308517456055
			],
			"min":[
				-0.2198314517736435,
				-1,
				-0.39656490087509155
			],
			"type":"VEC3"
		},
		{
			"bufferView":57,
			"componentType":5126,
			"count":275,
			"type":"VEC3"
		},
		{
			"bufferView":58,
			"componentType":5126,
			"count":275,
			"type":"VEC2"
		},
		{
			"bufferView":59,
			"componentType":5126,
			"count":275,
			"type":"VEC4"
		},
		{
			"bufferView":60,
			"componentType":5126,
			"count":275,
			"max":[
				14.28913688659668,
				1.0000001192092896,
				27.046308517456055
			],
			"min":[
				-0.2198314517736435,
				-1,
				-0.39656490087509155
			],
			"type":"VEC3"
		},
		{
			"bufferView":61,
			"componentType":5126,
			"count":275,
			"type":"VEC3"
		},
		{
			"bufferView":62,
			"componentType":5126,
			"count":275,
			"type":"VEC2"
		},
		{
			"bufferView":63,
			"componentType":5126,
			"count":275,
			"type":"VEC4"
		},
		{
			"bufferView":64,
			"componentType":5126,
			"count":44,
			"max":[
				4.033349990844727,
				1.1308314800262451,
				1
			],
			"min":[
				-1.6639585494995117,
				1.1108314990997314,
				-3.045987129211426
			],
			"type":"VEC3"
		},
		{
			"bufferView":65,
			"componentType":5126,
			"count":44,
			"type":"VEC3"
		},
		{
			"bufferView":66,
			"componentType":5126,
			"count":44,
			"type":"VEC2"
		},
		{
			"bufferView":67,
			"componentType":5123,
			"count":72,
			"type":"SCALAR"
		}
	],
	"bufferViews":[
		{
			"buffer":0,
			"byteLength":600,
			"byteOffset":0,
			"target":34962
		},
		{
			"buffer":0,
			"byteLength":600,
			"byteOffset":600,
			"target":34962
		},
		{
			"buffer":0,
			"byteLength":400,
			"byteOffset":1200,
			"target":34962
		},
		{
			"buffer":0,
			"byteLength":168,
			"byteOffset":1600,
			"target":34963
		},
		{
			"buffer":0,
			"byteLength":1776,
			"byteOffset":1768,
			"target":34962
		},
		{
			"buffer":0,
			"byteLength":1776,
			"byteOffset":3544,
			"target":34962
		},
		{
			"buffer":0,
			"byteLength":1184,
			"byteOffset":5320,
			"target":34962
		},
		{
			"buffer":0,
			"byteLength":588,
			"byteOffset":6504,
			"target":34963
		},
		{
			"buffer":0,
			"byteLength":3300,
			"byteOffset":7092,
			"target":34962
		},
		{
			"buffer":0,
			"byteLength":3300,
			"byteOffset":10392,
			"target":34962
		},
		{
			"buffer":0,
			"byteLength":2200,
			"byteOffset":13692,
			"target":34962
		},
		{
			"buffer":0,
			"byteLength":4400,
			"byteOffset":15892,
			"target":34962
		},
		{
			"buffer":0,
			"byteLength":960,
			"byteOffset":20292,
			"target":34963
		},
		{
			"buffer":0,
			"byteLength":3300,
			"byteOffset":21252,
			"target":34962
		},
		{
			"buffer":0,
			"byteLength":3300,
			"byteOffset":24552,
			"target":34962
		},
		{
			"buffer":0,
			"byteLength":2200,
			"byteOffset":27852,
			"target":34962
		},
		{
			"buffer":0,
			"byteLength":4400,
			"byteOffset":30052,
			"target":34962
		},
		{
			"buffer":0,
			"byteLength":3300,
			"byteOffset":34452,
			"target":34962
		},
		{
			"buffer":0,
			"byteLength":3300,
			"byteOffset":37752,
			"target":34962
		},
		{
			"buffer":0,
			"byteLength":2200,
			"byteOffset":41052,
			"target":34962
		},
		{
			"buffer":0,
			"byteLength":4400,
			"byteOffset":43252,
			"target":34962
		},
		{
			"buffer":0,
			"byteLength":3300,
			"byteOffset":47652,
			"target":34962
		},
		{
			"buffer":0,
			"byteLength":3300,
			"byteOffset":50952,
			"target":34962
		},
		{
			"buffer":0,
			"byteLength":2200,
			"byteOffset":54252,
			"target":34962
		},
		{
			"buffer":0,
			"byteLength":4400,
			"byteOffset":56452,
			"target":34962
		},
		{
			"buffer":0,
			"byteLength":3300,
			"byteOffset":60852,
			"target":34962
		},
		{
			"buffer":0,
			"byteLength":3300,
			"byteOffset":64152,
			"target":34962
		},
		{
			"buffer":0,
			"byteLength":2200,
			"byteOffset":67452,
			"target":34962
		},
		{
			"buffer":0,
			"byteLength":4400,
			"byteOffset":69652,
			"target":34962
		},
		{
			"buffer":0,
			"byteLength":3300,
			"byteOffset":74052,
			"target":34962
		},
		{
			"buffer":0,
			"byteLength":3300,
			"byteOffset":77352,
			"target":34962
		},
		{
			"buffer":0,
			"byteLength":2200,
			"byteOffset":80652,
			"target":34962
		},
		{
			"buffer":0,
			"byteLength":4400,
			"byteOffset":82852,
			"target":34962
		},
		{
			"buffer":0,
			"byteLength":7200,
			"byteOffset":87252,
			"target":34962
		},
		{
			"buffer":0,
			"byteLength":7200,
			"byteOffset":94452,
			"target":34962
		},
		{
			"buffer":0,
			"byteLength":4800,
			"byteOffset":101652,
			"target":34962
		},
		{
			"buffer":0,
			"byteLength":9600,
			"byteOffset":106452,
			"target":34962
		},
		{
			"buffer":0,
			"byteLength":1944,
			"byteOffset":116052,
			"target":34963
		},
		{
			"buffer":0,
			"byteLength":14400,
			"byteOffset":117996,
			"target":34962
		},
		{
			"buffer":0,
			"byteLength":14400,
			"byteOffset":132396,
			"target":34962
		},
		{
			"buffer":0,
			"byteLength":9600,
			"byteOffset":146796,
			"target":34962
		},
		{
			"buffer":0,
			"byteLength":19200,
			"byteOffset":156396,
			"target":34962
		},
		{
			"buffer":0,
			"byteLength":3888,
			"byteOffset":175596,
			"target":34963
		},
		{
			"buffer":0,
			"byteLength":3300,
			"byteOffset":179484,
			"target":34962
		},
		{
			"buffer":0,
			"byteLength":3300,
			"byteOffset":182784,
			"target":34962
		},
		{
			"buffer":0,
			"byteLength":2200,
			"byteOffset":186084,
			"target":34962
		},
		{
			"buffer":0,
			"byteLength":4400,
			"byteOffset":188284,
			"target":34962
		},
		{
			"buffer":0,
			"byteLength":3300,
			"byteOffset":192684,
			"target":34962
		},
		{
			"buffer":0,
			"byteLength":3300,
			"byteOffset":195984,
			"target":34962
		},
		{
			"buffer":0,
			"byteLength":2200,
			"byteOffset":199284,
			"target":34962
		},
		{
			"buffer":0,
			"byteLength":4400,
			"byteOffset":201484,
			"target":34962
		},
		{
			"buffer":0,
			"byteLength":288,
			"byteOffset":205884,
			"target":34962
		},
		{
			"buffer":0,
			"byteLength":288,
			"byteOffset":206172,
			"target":34962
		},
		{
			"buffer":0,
			"byteLength":192,
			"byteOffset":206460,
			"target":34962
		},
		{
			"buffer":0,
			"byteLength":384,
			"byteOffset":206652,
			"target":34962
		},
		{
			"buffer":0,
			"byteLength":72,
			"byteOffset":207036,
			"target":34963
		},
		{
			"buffer":0,
			"byteLength":3300,
			"byteOffset":207108,
			"target":34962
		},
		{
			"buffer":0,
			"byteLength":3300,
			"byteOffset":210408,
			"target":34962
		},
		{
			"buffer":0,
			"byteLength":2200,
			"byteOffset":213708,
			"target":34962
		},
		{
			"buffer":0,
			"byteLength":4400,
			"byteOffset":215908,
			"target":34962
		},
		{
			"buffer":0,
			"byteLength":3300,
			"byteOffset":220308,
			"target":34962
		},
		{
			"buffer":0,
			"byteLength":3300,
			"byteOffset":223608,
			"target":34962
		},
		{
			"buffer":0,
			"byteLength":2200,
			"byteOffset":226908,
			"target":34962
		},
		{
			"buffer":0,
			"byteLength":4400,
			"byteOffset":229108,
			"target":34962
		},
		{
			"buffer":0,
			"byteLength":528,
			"byteOffset":233508,
			"target":34962
		},
		{
			"buffer":0,
			"byteLength":528,
			"byteOffset":234036,
			"target":34962
		},
		{
			"buffer":0,
			"byteLength":352,
			"byteOffset":234564,
			"target":34962
		},
		{
			"buffer":0,
			"byteLength":144,
			"byteOffset":234916,
			"target":34963
		}
	],
	"buffers":[
		{
			"byteLength":235060,
			"uri":"HouseTest-70745562d6a2281bc60ae3ef553b9528.bin"
		}
	]
}
