{
	"asset":{
		"generator":"Khronos glTF Blender I/O v5.2.39",
		"version":"2.0"
	},
	"extensionsUsed":[
		"KHR_materials_emissive_strength"
	],
	"scene":0,
	"scenes":[
		{
			"name":"Scene",
			"nodes":[
				0
			]
		}
	],
	"nodes":[
		{
			"mesh":0,
			"name":"Kamera.001",
			"rotation":[
				0,
				-0.999992847442627,
				0,
				0.0037819810677319765
			],
			"scale":[
				0.43160757422447205,
				0.43160754442214966,
				0.43160757422447205
			]
		}
	],
	"materials":[
		{
			"doubleSided":true,
			"name":"Camera.001",
			"pbrMetallicRoughness":{
				"baseColorFactor":[
					0.45447197556495667,
					0.45447197556495667,
					0.45447197556495667,
					1
				],
				"roughnessFactor":0.18844221532344818
			}
		},
		{
			"doubleSided":true,
			"emissiveFactor":[
				0,
				1,
				0.002499950584024191
			],
			"extensions":{
				"KHR_materials_emissive_strength":{
					"emissiveStrength":18.70656967163086
				}
			},
			"name":"LED.001",
			"pbrMetallicRoughness":{
				"baseColorFactor":[
					0,
					0,
					0,
					1
				]
			}
		},
		{
			"doubleSided":true,
			"name":"CameraLens.001",
			"pbrMetallicRoughness":{
				"metallicFactor":0,
				"roughnessFactor":0.5
			}
		}
	],
	"meshes":[
		{
			"name":"Sphere.001",
			"primitives":[
				{
					"attributes":{
						"POSITION":0,
						"NORMAL":1,
						"TEXCOORD_0":2
					},
					"indices":3,
					"material":0
				},
				{
					"attributes":{
						"POSITION":4,
						"NORMAL":5,
						"TEXCOORD_0":6
					},
					"indices":7,
					"material":1
				},
				{
					"attributes":{
						"POSITION":8,
						"NORMAL":9,
						"TEXCOORD_0":10
					},
					"indices":11,
					"material":2
				}
			]
		}
	],
	"accessors":[
		{
			"bufferView":0,
			"componentType":5126,
			"count":1128,
			"max":[
				14.515274047851562,
				8.652313232421875,
				3.3539011478424072
			],
			"min":[
				0,
				-2.9707162380218506,
				-4.081030368804932
			],
			"type":"VEC3"
		},
		{
			"bufferView":1,
			"componentType":5126,
			"count":1128,
			"type":"VEC3"
		},
		{
			"bufferView":2,
			"componentType":5126,
			"count":1128,
			"type":"VEC2"
		},
		{
			"bufferView":3,
			"componentType":5123,
			"count":4512,
			"type":"SCALAR"
		},
		{
			"bufferView":4,
			"componentType":5126,
			"count":16,
			"max":[
				13.287619590759277,
				5.353392601013184,
				-0.28418904542922974
			],
			"min":[
				13.166784286499023,
				5.1559624671936035,
				-0.5292196273803711
			],
			"type":"VEC3"
		},
		{
			"bufferView":5,
			"componentType":5126,
			"count":16,
			"type":"VEC3"
		},
		{
			"bufferView":6,
			"componentType":5126,
			"count":16,
			"type":"VEC2"
		},
		{
			"bufferView":7,
			"componentType":5123,
			"count":42,
			"type":"SCALAR"
		},
		{
			"bufferView":8,
			"componentType":5126,
			"count":32,
			"max":[
				12.906339645385742,
				5.375335693359375,
				0.4552704095840454
			],
			"min":[
				11.217772483825684,
				2.6345207691192627,
				-2.9790616035461426
			],
			"type":"VEC3"
		},
		{
			"bufferView":9,
			"componentType":5126,
			"count":32,
			"type":"VEC3"
		},
		{
			"bufferView":10,
			"componentType":5126,
			"count":32,
			"type":"VEC2"
		},
		{
			"bufferView":11,
			"componentType":5123,
			"count":90,
			"type":"SCALAR"
		}
	],
	"bufferViews":[
		{
			"buffer":0,
			"byteLength":13536,
			"byteOffset":0,
			"target":34962
		},
		{
			"buffer":0,
			"byteLength":13536,
			"byteOffset":13536,
			"target":34962
		},
		{
			"buffer":0,
			"byteLength":9024,
			"byteOffset":27072,
			"target":34962
		},
		{
			"buffer":0,
			"byteLength":9024,
			"byteOffset":36096,
			"target":34963
		},
		{
			"buffer":0,
			"byteLength":192,
			"byteOffset":45120,
			"target":34962
		},
		{
			"buffer":0,
			"byteLength":192,
			"byteOffset":45312,
			"target":34962
		},
		{
			"buffer":0,
			"byteLength":128,
			"byteOffset":45504,
			"target":34962
		},
		{
			"buffer":0,
			"byteLength":84,
			"byteOffset":45632,
			"target":34963
		},
		{
			"buffer":0,
			"byteLength":384,
			"byteOffset":45716,
			"target":34962
		},
		{
			"buffer":0,
			"byteLength":384,
			"byteOffset":46100,
			"target":34962
		},
		{
			"buffer":0,
			"byteLength":256,
			"byteOffset":46484,
			"target":34962
		},
		{
			"buffer":0,
			"byteLength":180,
			"byteOffset":46740,
			"target":34963
		}
	],
	"buffers":[
		{
			"byteLength":46920,
			"uri":"Kamera-2145b66376177a43ec9c99c0da37e2a1.bin"
		}
	]
}
