{
	"asset":{
		"generator":"Khronos glTF Blender I/O v5.1.20",
		"version":"2.0"
	},
	"extensionsUsed":[
		"KHR_lights_punctual"
	],
	"extensionsRequired":[
		"KHR_lights_punctual"
	],
	"extensions":{
		"KHR_lights_punctual":{
			"lights":[
				{
					"color":[
						0.7075471878051758,
						0.6527822613716125,
						0.46391066908836365
					],
					"intensity":0.00795774727317444,
					"spot":{
						"innerConeAngle":0.3603042662143707,
						"outerConeAngle":0.3603042662143707
					},
					"type":"spot",
					"name":"Point_Light"
				}
			]
		}
	},
	"scene":0,
	"scenes":[
		{
			"name":"Scene",
			"nodes":[
				1
			]
		}
	],
	"nodes":[
		{
			"extensions":{
				"KHR_lights_punctual":{
					"light":0
				}
			},
			"name":"Point_Light",
			"rotation":[
				-1,
				0,
				0,
				5.486322152137291e-08
			],
			"translation":[
				0,
				122.79967498779297,
				-431.6999816894531
			]
		},
		{
			"children":[
				0
			],
			"mesh":0,
			"name":"SM_road_lantern_01",
			"rotation":[
				0.7071068286895752,
				0,
				0,
				0.7071068286895752
			],
			"scale":[
				0.009999999776482582,
				0.009999999776482582,
				0.009999999776482582
			]
		}
	],
	"materials":[
		{
			"doubleSided":true,
			"emissiveFactor":[
				0.0004978554206900299,
				0.00039445466245524585,
				0.00028722427668981254
			],
			"name":"MainMaterial",
			"pbrMetallicRoughness":{
				"metallicFactor":0,
				"roughnessFactor":0.5
			}
		}
	],
	"meshes":[
		{
			"name":"Scene",
			"primitives":[
				{
					"attributes":{
						"POSITION":0,
						"NORMAL":1,
						"TEXCOORD_0":2,
						"TEXCOORD_1":3,
						"TANGENT":4
					},
					"indices":5,
					"material":0
				}
			]
		}
	],
	"accessors":[
		{
			"bufferView":0,
			"componentType":5126,
			"count":650,
			"max":[
				22.82834815979004,
				172.79644775390625,
				0
			],
			"min":[
				-22.82843589782715,
				-16.476911544799805,
				-479.6858825683594
			],
			"type":"VEC3"
		},
		{
			"bufferView":1,
			"componentType":5126,
			"count":650,
			"type":"VEC3"
		},
		{
			"bufferView":2,
			"componentType":5126,
			"count":650,
			"type":"VEC2"
		},
		{
			"bufferView":3,
			"componentType":5126,
			"count":650,
			"type":"VEC2"
		},
		{
			"bufferView":4,
			"componentType":5126,
			"count":650,
			"type":"VEC4"
		},
		{
			"bufferView":5,
			"componentType":5123,
			"count":1080,
			"type":"SCALAR"
		}
	],
	"bufferViews":[
		{
			"buffer":0,
			"byteLength":7800,
			"byteOffset":0,
			"target":34962
		},
		{
			"buffer":0,
			"byteLength":7800,
			"byteOffset":7800,
			"target":34962
		},
		{
			"buffer":0,
			"byteLength":5200,
			"byteOffset":15600,
			"target":34962
		},
		{
			"buffer":0,
			"byteLength":5200,
			"byteOffset":20800,
			"target":34962
		},
		{
			"buffer":0,
			"byteLength":10400,
			"byteOffset":26000,
			"target":34962
		},
		{
			"buffer":0,
			"byteLength":2160,
			"byteOffset":36400,
			"target":34963
		}
	],
	"buffers":[
		{
			"byteLength":38560,
			"uri":"Lantern-19a4f8faaf4dd9354d6b68585c1baa18.bin"
		}
	]
}
