{
	"asset":{
		"generator":"Khronos glTF Blender I/O v5.2.39",
		"version":"2.0"
	},
	"scene":0,
	"scenes":[
		{
			"name":"Scene",
			"nodes":[
				0
			]
		}
	],
	"nodes":[
		{
			"mesh":0,
			"name":"Laser",
			"rotation":[
				0,
				-0.999992847442627,
				0,
				0.0037819810677319765
			],
			"scale":[
				3.66660737991333,
				3.66660737991333,
				3.66660737991333
			]
		}
	],
	"materials":[
		{
			"doubleSided":true,
			"name":"Camera.002",
			"pbrMetallicRoughness":{
				"baseColorFactor":[
					0.45447197556495667,
					0.45447197556495667,
					0.45447197556495667,
					1
				],
				"roughnessFactor":0.18844221532344818
			}
		}
	],
	"meshes":[
		{
			"name":"Circle",
			"primitives":[
				{
					"attributes":{
						"POSITION":0,
						"NORMAL":1,
						"TEXCOORD_0":2
					},
					"indices":3,
					"material":0
				}
			]
		}
	],
	"accessors":[
		{
			"bufferView":0,
			"componentType":5126,
			"count":18850,
			"max":[
				0.6558364629745483,
				5.976417541503906,
				5.004262924194336
			],
			"min":[
				-0.6558364629745483,
				-0.0023660659790039062,
				-5.004262924194336
			],
			"type":"VEC3"
		},
		{
			"bufferView":1,
			"componentType":5126,
			"count":18850,
			"type":"VEC3"
		},
		{
			"bufferView":2,
			"componentType":5126,
			"count":18850,
			"type":"VEC2"
		},
		{
			"bufferView":3,
			"componentType":5123,
			"count":28410,
			"type":"SCALAR"
		}
	],
	"bufferViews":[
		{
			"buffer":0,
			"byteLength":226200,
			"byteOffset":0,
			"target":34962
		},
		{
			"buffer":0,
			"byteLength":226200,
			"byteOffset":226200,
			"target":34962
		},
		{
			"buffer":0,
			"byteLength":150800,
			"byteOffset":452400,
			"target":34962
		},
		{
			"buffer":0,
			"byteLength":56820,
			"byteOffset":603200,
			"target":34963
		}
	],
	"buffers":[
		{
			"byteLength":660020,
			"uri":"LaserBarrier-0eedf53a9fb33686ce633addf23aa806.bin"
		}
	]
}
