{
	"asset":{
		"generator":"Khronos glTF Blender I/O v5.1.20",
		"version":"2.0"
	},
	"scene":0,
	"scenes":[
		{
			"extras":{
				"psx_export":{}
			},
			"name":"Scene",
			"nodes":[
				0,
				1
			]
		}
	],
	"nodes":[
		{
			"mesh":0,
			"name":"Locker"
		},
		{
			"mesh":1,
			"name":"Locker Door",
			"rotation":[
				0,
				-0.7071068286895752,
				0,
				0.7071068286895752
			],
			"scale":[
				0.5990915298461914,
				1.901111125946045,
				0.5990915298461914
			],
			"translation":[
				-0.5990915894508362,
				1.9011120796203613,
				0.5990915894508362
			]
		}
	],
	"animations":[
		{
			"channels":[
				{
					"sampler":0,
					"target":{
						"node":1,
						"path":"rotation"
					}
				}
			],
			"name":"Action",
			"samplers":[
				{
					"input":9,
					"interpolation":"LINEAR",
					"output":10
				}
			]
		}
	],
	"materials":[
		{
			"doubleSided":true,
			"extras":{
				"mmd_material":{}
			},
			"name":"Material",
			"pbrMetallicRoughness":{
				"baseColorFactor":[
					0,
					0.3842892646789551,
					0.011333112604916096,
					1
				],
				"metallicFactor":0,
				"roughnessFactor":0.5
			}
		}
	],
	"meshes":[
		{
			"name":"Cube.001",
			"primitives":[
				{
					"attributes":{
						"POSITION":0,
						"NORMAL":1,
						"TEXCOORD_0":2
					},
					"indices":3
				}
			]
		},
		{
			"name":"Cube.003",
			"primitives":[
				{
					"attributes":{
						"POSITION":4,
						"NORMAL":5,
						"TEXCOORD_0":6,
						"TANGENT":7
					},
					"indices":8,
					"material":0
				}
			]
		}
	],
	"accessors":[
		{
			"bufferView":0,
			"componentType":5126,
			"count":110,
			"max":[
				0.5990915298461914,
				3.8022232055664062,
				0.5990915298461914
			],
			"min":[
				-0.5990915298461914,
				9.065204267244553e-07,
				-0.5990915298461914
			],
			"type":"VEC3"
		},
		{
			"bufferView":1,
			"componentType":5126,
			"count":110,
			"type":"VEC3"
		},
		{
			"bufferView":2,
			"componentType":5126,
			"count":110,
			"type":"VEC2"
		},
		{
			"bufferView":3,
			"componentType":5123,
			"count":210,
			"type":"SCALAR"
		},
		{
			"bufferView":4,
			"componentType":5126,
			"count":24,
			"max":[
				0.009999999776482582,
				1,
				0
			],
			"min":[
				0,
				-1,
				-2
			],
			"type":"VEC3"
		},
		{
			"bufferView":5,
			"componentType":5126,
			"count":24,
			"type":"VEC3"
		},
		{
			"bufferView":6,
			"componentType":5126,
			"count":24,
			"type":"VEC2"
		},
		{
			"bufferView":7,
			"componentType":5126,
			"count":24,
			"type":"VEC4"
		},
		{
			"bufferView":8,
			"componentType":5123,
			"count":36,
			"type":"SCALAR"
		},
		{
			"bufferView":9,
			"componentType":5126,
			"count":25,
			"max":[
				1.0416666666666667
			],
			"min":[
				0.041666666666666664
			],
			"type":"SCALAR"
		},
		{
			"bufferView":10,
			"componentType":5126,
			"count":25,
			"type":"VEC4"
		}
	],
	"bufferViews":[
		{
			"buffer":0,
			"byteLength":1320,
			"byteOffset":0,
			"target":34962
		},
		{
			"buffer":0,
			"byteLength":1320,
			"byteOffset":1320,
			"target":34962
		},
		{
			"buffer":0,
			"byteLength":880,
			"byteOffset":2640,
			"target":34962
		},
		{
			"buffer":0,
			"byteLength":420,
			"byteOffset":3520,
			"target":34963
		},
		{
			"buffer":0,
			"byteLength":288,
			"byteOffset":3940,
			"target":34962
		},
		{
			"buffer":0,
			"byteLength":288,
			"byteOffset":4228,
			"target":34962
		},
		{
			"buffer":0,
			"byteLength":192,
			"byteOffset":4516,
			"target":34962
		},
		{
			"buffer":0,
			"byteLength":384,
			"byteOffset":4708,
			"target":34962
		},
		{
			"buffer":0,
			"byteLength":72,
			"byteOffset":5092,
			"target":34963
		},
		{
			"buffer":0,
			"byteLength":100,
			"byteOffset":5164
		},
		{
			"buffer":0,
			"byteLength":400,
			"byteOffset":5264
		}
	],
	"buffers":[
		{
			"byteLength":5664,
			"uri":"Locker-f4d325f7d6c938b0484a228c9999bc6f.bin"
		}
	]
}
