{
	"asset":{
		"generator":"Khronos glTF Blender I/O v5.1.19",
		"version":"2.0"
	},
	"scene":0,
	"scenes":[
		{
			"name":"Scene",
			"nodes":[
				0,
				1
			]
		}
	],
	"nodes":[
		{
			"mesh":0,
			"name":"Cube",
			"rotation":[
				0,
				-0.7071068286895752,
				0,
				0.7071068286895752
			],
			"translation":[
				0.001486848690547049,
				0,
				-0.0014868485741317272
			]
		},
		{
			"mesh":1,
			"name":"Register",
			"rotation":[
				0,
				-0.7071068286895752,
				0,
				0.7071068286895752
			],
			"translation":[
				0,
				0,
				-0.7299999594688416
			]
		}
	],
	"animations":[
		{
			"channels":[
				{
					"sampler":0,
					"target":{
						"node":1,
						"path":"translation"
					}
				}
			],
			"name":"Action",
			"samplers":[
				{
					"input":9,
					"interpolation":"LINEAR",
					"output":10
				}
			]
		}
	],
	"materials":[
		{
			"doubleSided":true,
			"name":"Material",
			"pbrMetallicRoughness":{
				"baseColorFactor":[
					0.0350986085832119,
					0.2609131634235382,
					0.04576687887310982,
					1
				],
				"metallicFactor":0.5027624368667603,
				"roughnessFactor":0.5
			}
		}
	],
	"meshes":[
		{
			"name":"Cube.001",
			"primitives":[
				{
					"attributes":{
						"POSITION":0,
						"NORMAL":1,
						"TEXCOORD_0":2
					},
					"indices":3,
					"material":0
				}
			]
		},
		{
			"name":"Cube.002",
			"primitives":[
				{
					"attributes":{
						"POSITION":4,
						"NORMAL":5,
						"TEXCOORD_0":6,
						"TANGENT":7
					},
					"indices":8,
					"material":0
				}
			]
		}
	],
	"accessors":[
		{
			"bufferView":0,
			"componentType":5126,
			"count":32,
			"max":[
				0.47179603576660156,
				1,
				1
			],
			"min":[
				-1,
				-1,
				-1
			],
			"type":"VEC3"
		},
		{
			"bufferView":1,
			"componentType":5126,
			"count":32,
			"type":"VEC3"
		},
		{
			"bufferView":2,
			"componentType":5126,
			"count":32,
			"type":"VEC2"
		},
		{
			"bufferView":3,
			"componentType":5123,
			"count":54,
			"type":"SCALAR"
		},
		{
			"bufferView":4,
			"componentType":5126,
			"count":108,
			"max":[
				1.1936490535736084,
				-0.5687263011932373,
				1
			],
			"min":[
				0.20288288593292236,
				-1,
				-1
			],
			"type":"VEC3"
		},
		{
			"bufferView":5,
			"componentType":5126,
			"count":108,
			"type":"VEC3"
		},
		{
			"bufferView":6,
			"componentType":5126,
			"count":108,
			"type":"VEC2"
		},
		{
			"bufferView":7,
			"componentType":5126,
			"count":108,
			"type":"VEC4"
		},
		{
			"bufferView":8,
			"componentType":5123,
			"count":162,
			"type":"SCALAR"
		},
		{
			"bufferView":9,
			"componentType":5126,
			"count":25,
			"max":[
				1.0416666666666667
			],
			"min":[
				0.041666666666666664
			],
			"type":"SCALAR"
		},
		{
			"bufferView":10,
			"componentType":5126,
			"count":25,
			"type":"VEC3"
		}
	],
	"bufferViews":[
		{
			"buffer":0,
			"byteLength":384,
			"byteOffset":0,
			"target":34962
		},
		{
			"buffer":0,
			"byteLength":384,
			"byteOffset":384,
			"target":34962
		},
		{
			"buffer":0,
			"byteLength":256,
			"byteOffset":768,
			"target":34962
		},
		{
			"buffer":0,
			"byteLength":108,
			"byteOffset":1024,
			"target":34963
		},
		{
			"buffer":0,
			"byteLength":1296,
			"byteOffset":1132,
			"target":34962
		},
		{
			"buffer":0,
			"byteLength":1296,
			"byteOffset":2428,
			"target":34962
		},
		{
			"buffer":0,
			"byteLength":864,
			"byteOffset":3724,
			"target":34962
		},
		{
			"buffer":0,
			"byteLength":1728,
			"byteOffset":4588,
			"target":34962
		},
		{
			"buffer":0,
			"byteLength":324,
			"byteOffset":6316,
			"target":34963
		},
		{
			"buffer":0,
			"byteLength":100,
			"byteOffset":6640
		},
		{
			"buffer":0,
			"byteLength":300,
			"byteOffset":6740
		}
	],
	"buffers":[
		{
			"byteLength":7040,
			"uri":"Register-3624d241f34d22663c49fcac19fef9e9.bin"
		}
	]
}
