{
	"asset":{
		"generator":"Khronos glTF Blender I/O v5.2.39",
		"version":"2.0"
	},
	"scene":0,
	"scenes":[
		{
			"name":"Scene",
			"nodes":[
				3
			]
		}
	],
	"nodes":[
		{
			"name":"Bone",
			"translation":[
				-0.5307751893997192,
				0.047669798135757446,
				0.2780921459197998
			]
		},
		{
			"name":"neutral_bone",
			"rotation":[
				-0.7071067690849304,
				0,
				0,
				0.7071067690849304
			]
		},
		{
			"mesh":0,
			"name":"Safe",
			"skin":0
		},
		{
			"children":[
				2,
				0,
				1
			],
			"name":"Armature"
		}
	],
	"animations":[
		{
			"channels":[
				{
					"sampler":0,
					"target":{
						"node":0,
						"path":"translation"
					}
				},
				{
					"sampler":1,
					"target":{
						"node":0,
						"path":"rotation"
					}
				},
				{
					"sampler":2,
					"target":{
						"node":0,
						"path":"scale"
					}
				}
			],
			"name":"Action",
			"samplers":[
				{
					"input":7,
					"interpolation":"STEP",
					"output":8
				},
				{
					"input":9,
					"interpolation":"LINEAR",
					"output":10
				},
				{
					"input":7,
					"interpolation":"STEP",
					"output":11
				}
			]
		}
	],
	"materials":[
		{
			"doubleSided":true,
			"name":"Safe",
			"pbrMetallicRoughness":{
				"baseColorFactor":[
					0.9548611640930176,
					0.9548611640930176,
					0.9548611640930176,
					1
				],
				"roughnessFactor":0.17467251420021057
			}
		}
	],
	"meshes":[
		{
			"name":"Cube.021",
			"primitives":[
				{
					"attributes":{
						"POSITION":0,
						"NORMAL":1,
						"TEXCOORD_0":2,
						"JOINTS_0":3,
						"WEIGHTS_0":4
					},
					"indices":5,
					"material":0
				}
			]
		}
	],
	"skins":[
		{
			"inverseBindMatrices":6,
			"joints":[
				0,
				1
			],
			"name":"Armature"
		}
	],
	"accessors":[
		{
			"bufferView":0,
			"componentType":5126,
			"count":1936,
			"max":[
				0.5757542252540588,
				1.589459776878357,
				0.30812713503837585
			],
			"min":[
				-0.5796697735786438,
				0,
				-0.27846208214759827
			],
			"type":"VEC3"
		},
		{
			"bufferView":1,
			"componentType":5126,
			"count":1936,
			"type":"VEC3"
		},
		{
			"bufferView":2,
			"componentType":5126,
			"count":1936,
			"type":"VEC2"
		},
		{
			"bufferView":3,
			"componentType":5121,
			"count":1936,
			"type":"VEC4"
		},
		{
			"bufferView":4,
			"componentType":5126,
			"count":1936,
			"type":"VEC4"
		},
		{
			"bufferView":5,
			"componentType":5123,
			"count":5403,
			"type":"SCALAR"
		},
		{
			"bufferView":6,
			"componentType":5126,
			"count":2,
			"type":"MAT4"
		},
		{
			"bufferView":7,
			"componentType":5126,
			"count":2,
			"max":[
				1
			],
			"min":[
				0.016666666666666666
			],
			"type":"SCALAR"
		},
		{
			"bufferView":8,
			"componentType":5126,
			"count":2,
			"type":"VEC3"
		},
		{
			"bufferView":9,
			"componentType":5126,
			"count":60,
			"max":[
				1
			],
			"min":[
				0.016666666666666666
			],
			"type":"SCALAR"
		},
		{
			"bufferView":10,
			"componentType":5126,
			"count":60,
			"type":"VEC4"
		},
		{
			"bufferView":11,
			"componentType":5126,
			"count":2,
			"type":"VEC3"
		}
	],
	"bufferViews":[
		{
			"buffer":0,
			"byteLength":23232,
			"byteOffset":0,
			"target":34962
		},
		{
			"buffer":0,
			"byteLength":23232,
			"byteOffset":23232,
			"target":34962
		},
		{
			"buffer":0,
			"byteLength":15488,
			"byteOffset":46464,
			"target":34962
		},
		{
			"buffer":0,
			"byteLength":7744,
			"byteOffset":61952,
			"target":34962
		},
		{
			"buffer":0,
			"byteLength":30976,
			"byteOffset":69696,
			"target":34962
		},
		{
			"buffer":0,
			"byteLength":10806,
			"byteOffset":100672,
			"target":34963
		},
		{
			"buffer":0,
			"byteLength":128,
			"byteOffset":111480
		},
		{
			"buffer":0,
			"byteLength":8,
			"byteOffset":111608
		},
		{
			"buffer":0,
			"byteLength":24,
			"byteOffset":111616
		},
		{
			"buffer":0,
			"byteLength":240,
			"byteOffset":111640
		},
		{
			"buffer":0,
			"byteLength":960,
			"byteOffset":111880
		},
		{
			"buffer":0,
			"byteLength":24,
			"byteOffset":112840
		}
	],
	"buffers":[
		{
			"byteLength":112864,
			"uri":"Safe-ef8735b67b0c0fea5922d2af142d548e.bin"
		}
	]
}
