{
	"asset":{
		"generator":"Khronos glTF Blender I/O v5.1.20",
		"version":"2.0"
	},
	"scene":0,
	"scenes":[
		{
			"extras":{
				"psx_export":{}
			},
			"name":"Scene",
			"nodes":[
				0
			]
		}
	],
	"nodes":[
		{
			"mesh":0,
			"name":"Regal.003",
			"rotation":[
				0,
				-1,
				0,
				1.6292068494294654e-07
			],
			"scale":[
				-0.11259440332651138,
				-1.7817319631576538,
				-0.11259440332651138
			]
		}
	],
	"materials":[
		{
			"doubleSided":true,
			"extras":{
				"mmd_material":{}
			},
			"name":"Metal.001",
			"pbrMetallicRoughness":{
				"baseColorFactor":[
					0.053425826132297516,
					0.053425826132297516,
					0.053425826132297516,
					1
				],
				"roughnessFactor":0.30000001192092896
			}
		}
	],
	"meshes":[
		{
			"name":"Cube.001",
			"primitives":[
				{
					"attributes":{
						"POSITION":0,
						"NORMAL":1,
						"TEXCOORD_0":2,
						"TANGENT":3
					},
					"indices":4,
					"material":0
				}
			]
		}
	],
	"accessors":[
		{
			"bufferView":0,
			"componentType":5126,
			"count":273,
			"max":[
				7.211697578430176,
				0,
				13.749186515808105
			],
			"min":[
				-7.297270774841309,
				-2,
				-13.693686485290527
			],
			"type":"VEC3"
		},
		{
			"bufferView":1,
			"componentType":5126,
			"count":273,
			"type":"VEC3"
		},
		{
			"bufferView":2,
			"componentType":5126,
			"count":273,
			"type":"VEC2"
		},
		{
			"bufferView":3,
			"componentType":5126,
			"count":273,
			"type":"VEC4"
		},
		{
			"bufferView":4,
			"componentType":5123,
			"count":480,
			"type":"SCALAR"
		}
	],
	"bufferViews":[
		{
			"buffer":0,
			"byteLength":3276,
			"byteOffset":0,
			"target":34962
		},
		{
			"buffer":0,
			"byteLength":3276,
			"byteOffset":3276,
			"target":34962
		},
		{
			"buffer":0,
			"byteLength":2184,
			"byteOffset":6552,
			"target":34962
		},
		{
			"buffer":0,
			"byteLength":4368,
			"byteOffset":8736,
			"target":34962
		},
		{
			"buffer":0,
			"byteLength":960,
			"byteOffset":13104,
			"target":34963
		}
	],
	"buffers":[
		{
			"byteLength":14064,
			"uri":"Shelf-e011cc206ccf026a2f17586f92f4ecb2.bin"
		}
	]
}
