{
	"asset":{
		"generator":"Khronos glTF Blender I/O v5.1.20",
		"version":"2.0"
	},
	"scene":0,
	"scenes":[
		{
			"name":"Scene",
			"nodes":[
				19
			]
		}
	],
	"nodes":[
		{
			"mesh":0,
			"name":"pPlaneShape10"
		},
		{
			"mesh":1,
			"name":"pPlaneShape13"
		},
		{
			"children":[
				0,
				1
			],
			"name":"group1_PIVOT",
			"translation":[
				0.018731359392404556,
				-0.18484148383140564,
				1.4222332239151
			]
		},
		{
			"children":[
				2
			],
			"name":"group1",
			"translation":[
				-0.028642181307077408,
				0.18484148383140564,
				-1.4222332239151
			]
		},
		{
			"mesh":2,
			"name":"pPlaneShape11"
		},
		{
			"mesh":3,
			"name":"pPlaneShape12"
		},
		{
			"children":[
				4,
				5
			],
			"name":"group2_PIVOT",
			"translation":[
				0.018847450613975525,
				-0.18523769080638885,
				1.3252722024917603
			]
		},
		{
			"children":[
				6
			],
			"name":"group2",
			"translation":[
				-0.029961904510855675,
				0.18523769080638885,
				-1.3252722024917603
			]
		},
		{
			"mesh":4,
			"name":"pPlaneShape1"
		},
		{
			"mesh":5,
			"name":"pPlaneShape2"
		},
		{
			"mesh":6,
			"name":"pPlaneShape3"
		},
		{
			"mesh":7,
			"name":"pPlaneShape4"
		},
		{
			"mesh":8,
			"name":"pPlaneShape5"
		},
		{
			"mesh":9,
			"name":"pPlaneShape6"
		},
		{
			"mesh":10,
			"name":"pPlaneShape7"
		},
		{
			"mesh":11,
			"name":"pPlaneShape8"
		},
		{
			"mesh":12,
			"name":"pPlaneShape9"
		},
		{
			"name":"snapperShape"
		},
		{
			"children":[
				17
			],
			"name":"snapper",
			"scale":[
				0.20875975489616394,
				0.20875975489616394,
				0.20875975489616394
			],
			"translation":[
				-0.007276538293808699,
				0.2772519290447235,
				-1.3126590251922607
			]
		},
		{
			"children":[
				3,
				7,
				8,
				9,
				10,
				11,
				12,
				13,
				14,
				15,
				16,
				18
			],
			"name":"FensterStandard",
			"rotation":[
				0,
				-0.7071068286895752,
				0.7071068286895752,
				3.090862321641907e-08
			],
			"translation":[
				-0.014594877138733864,
				-1.3740472793579102,
				0.18529915809631348
			]
		}
	],
	"animations":[
		{
			"channels":[
				{
					"sampler":0,
					"target":{
						"node":3,
						"path":"rotation"
					}
				}
			],
			"name":"group1Action",
			"samplers":[
				{
					"input":60,
					"interpolation":"LINEAR",
					"output":61
				}
			]
		},
		{
			"channels":[
				{
					"sampler":0,
					"target":{
						"node":7,
						"path":"rotation"
					}
				}
			],
			"name":"group2Action",
			"samplers":[
				{
					"input":60,
					"interpolation":"LINEAR",
					"output":62
				}
			]
		}
	],
	"materials":[
		{
			"alphaMode":"BLEND",
			"doubleSided":true,
			"name":"lambert2_pPlaneShape10",
			"pbrMetallicRoughness":{
				"metallicFactor":0,
				"roughnessFactor":0.5
			}
		},
		{
			"alphaMode":"BLEND",
			"doubleSided":true,
			"name":"lambert2_pPlaneShape13",
			"pbrMetallicRoughness":{
				"metallicFactor":0,
				"roughnessFactor":0.5
			}
		},
		{
			"alphaMode":"BLEND",
			"doubleSided":true,
			"name":"lambert2_pPlaneShape11",
			"pbrMetallicRoughness":{
				"metallicFactor":0,
				"roughnessFactor":0.5
			}
		},
		{
			"alphaMode":"BLEND",
			"doubleSided":true,
			"name":"lambert2_pPlaneShape12",
			"pbrMetallicRoughness":{
				"metallicFactor":0,
				"roughnessFactor":0.5
			}
		},
		{
			"alphaMode":"BLEND",
			"doubleSided":true,
			"name":"lambert2_pPlaneShape1.001",
			"pbrMetallicRoughness":{
				"metallicFactor":0,
				"roughnessFactor":0.5
			}
		},
		{
			"alphaMode":"BLEND",
			"doubleSided":true,
			"name":"lambert2_pPlaneShape2.002",
			"pbrMetallicRoughness":{
				"metallicFactor":0,
				"roughnessFactor":0.5
			}
		},
		{
			"alphaMode":"BLEND",
			"doubleSided":true,
			"name":"lambert2_pPlaneShape3.001",
			"pbrMetallicRoughness":{
				"metallicFactor":0,
				"roughnessFactor":0.5
			}
		},
		{
			"alphaMode":"BLEND",
			"doubleSided":true,
			"name":"lambert2_pPlaneShape4",
			"pbrMetallicRoughness":{
				"metallicFactor":0,
				"roughnessFactor":0.5
			}
		},
		{
			"alphaMode":"BLEND",
			"doubleSided":true,
			"name":"lambert2_pPlaneShape5.001",
			"pbrMetallicRoughness":{
				"metallicFactor":0,
				"roughnessFactor":0.5
			}
		},
		{
			"alphaMode":"BLEND",
			"doubleSided":true,
			"name":"lambert2_pPlaneShape6.001",
			"pbrMetallicRoughness":{
				"metallicFactor":0,
				"roughnessFactor":0.5
			}
		},
		{
			"alphaMode":"BLEND",
			"doubleSided":true,
			"name":"lambert2_pPlaneShape7",
			"pbrMetallicRoughness":{
				"metallicFactor":0,
				"roughnessFactor":0.5
			}
		},
		{
			"alphaMode":"BLEND",
			"doubleSided":true,
			"name":"lambert2_pPlaneShape8",
			"pbrMetallicRoughness":{
				"metallicFactor":0,
				"roughnessFactor":0.5
			}
		},
		{
			"alphaMode":"BLEND",
			"doubleSided":true,
			"name":"lambert2_pPlaneShape9",
			"pbrMetallicRoughness":{
				"metallicFactor":0,
				"roughnessFactor":0.5
			}
		}
	],
	"meshes":[
		{
			"name":"pPlaneShape10.005",
			"primitives":[
				{
					"attributes":{
						"POSITION":0,
						"NORMAL":1,
						"TEXCOORD_0":2,
						"TANGENT":3
					},
					"indices":4,
					"material":0
				}
			]
		},
		{
			"name":"pPlaneShape13.004",
			"primitives":[
				{
					"attributes":{
						"POSITION":5,
						"NORMAL":6,
						"TEXCOORD_0":7,
						"TANGENT":8
					},
					"indices":9,
					"material":1
				}
			]
		},
		{
			"name":"pPlaneShape11.005",
			"primitives":[
				{
					"attributes":{
						"POSITION":10,
						"NORMAL":11,
						"TEXCOORD_0":12,
						"TANGENT":13
					},
					"indices":14,
					"material":2
				}
			]
		},
		{
			"name":"pPlaneShape12.004",
			"primitives":[
				{
					"attributes":{
						"POSITION":15,
						"NORMAL":16,
						"TEXCOORD_0":17,
						"TANGENT":18
					},
					"indices":19,
					"material":3
				}
			]
		},
		{
			"name":"pPlaneShape1.006",
			"primitives":[
				{
					"attributes":{
						"POSITION":20,
						"NORMAL":21,
						"TEXCOORD_0":22,
						"TANGENT":23
					},
					"indices":24,
					"material":4
				}
			]
		},
		{
			"name":"pPlaneShape2.008",
			"primitives":[
				{
					"attributes":{
						"POSITION":25,
						"NORMAL":26,
						"TEXCOORD_0":27,
						"TANGENT":28
					},
					"indices":29,
					"material":5
				}
			]
		},
		{
			"name":"pPlaneShape3.005",
			"primitives":[
				{
					"attributes":{
						"POSITION":30,
						"NORMAL":31,
						"TEXCOORD_0":32,
						"TANGENT":33
					},
					"indices":34,
					"material":6
				}
			]
		},
		{
			"name":"pPlaneShape4.003",
			"primitives":[
				{
					"attributes":{
						"POSITION":35,
						"NORMAL":36,
						"TEXCOORD_0":37,
						"TANGENT":38
					},
					"indices":39,
					"material":7
				}
			]
		},
		{
			"name":"pPlaneShape5.004",
			"primitives":[
				{
					"attributes":{
						"POSITION":40,
						"NORMAL":41,
						"TEXCOORD_0":42,
						"TANGENT":43
					},
					"indices":19,
					"material":8
				}
			]
		},
		{
			"name":"pPlaneShape6.005",
			"primitives":[
				{
					"attributes":{
						"POSITION":44,
						"NORMAL":45,
						"TEXCOORD_0":46,
						"TANGENT":47
					},
					"indices":14,
					"material":9
				}
			]
		},
		{
			"name":"pPlaneShape7.005",
			"primitives":[
				{
					"attributes":{
						"POSITION":48,
						"NORMAL":49,
						"TEXCOORD_0":50,
						"TANGENT":51
					},
					"indices":9,
					"material":10
				}
			]
		},
		{
			"name":"pPlaneShape8.004",
			"primitives":[
				{
					"attributes":{
						"POSITION":52,
						"NORMAL":53,
						"TEXCOORD_0":54,
						"TANGENT":55
					},
					"indices":14,
					"material":11
				}
			]
		},
		{
			"name":"pPlaneShape9.005",
			"primitives":[
				{
					"attributes":{
						"POSITION":56,
						"NORMAL":57,
						"TEXCOORD_0":58,
						"TANGENT":59
					},
					"indices":9,
					"material":12
				}
			]
		}
	],
	"accessors":[
		{
			"bufferView":0,
			"componentType":5126,
			"count":6,
			"max":[
				-0.021374816074967384,
				0.2669769823551178,
				-1.373031497001648
			],
			"min":[
				-0.021374817937612534,
				0.10270599275827408,
				-1.422931432723999
			],
			"type":"VEC3"
		},
		{
			"bufferView":1,
			"componentType":5126,
			"count":6,
			"type":"VEC3"
		},
		{
			"bufferView":2,
			"componentType":5126,
			"count":6,
			"type":"VEC2"
		},
		{
			"bufferView":3,
			"componentType":5126,
			"count":6,
			"type":"VEC4"
		},
		{
			"bufferView":4,
			"componentType":5123,
			"count":6,
			"type":"SCALAR"
		},
		{
			"bufferView":5,
			"componentType":5126,
			"count":6,
			"max":[
				-0.017139431089162827,
				0.2669769823551178,
				-1.373031497001648
			],
			"min":[
				-0.017139432951807976,
				0.10270599275827408,
				-1.422931432723999
			],
			"type":"VEC3"
		},
		{
			"bufferView":6,
			"componentType":5126,
			"count":6,
			"type":"VEC3"
		},
		{
			"bufferView":7,
			"componentType":5126,
			"count":6,
			"type":"VEC2"
		},
		{
			"bufferView":8,
			"componentType":5126,
			"count":6,
			"type":"VEC4"
		},
		{
			"bufferView":9,
			"componentType":5123,
			"count":6,
			"type":"SCALAR"
		},
		{
			"bufferView":10,
			"componentType":5126,
			"count":4,
			"max":[
				-0.020323287695646286,
				0.26712676882743835,
				-1.3237566947937012
			],
			"min":[
				-0.020323289558291435,
				0.10334862768650055,
				-1.3731024265289307
			],
			"type":"VEC3"
		},
		{
			"bufferView":11,
			"componentType":5126,
			"count":4,
			"type":"VEC3"
		},
		{
			"bufferView":12,
			"componentType":5126,
			"count":4,
			"type":"VEC2"
		},
		{
			"bufferView":13,
			"componentType":5126,
			"count":4,
			"type":"VEC4"
		},
		{
			"bufferView":14,
			"componentType":5123,
			"count":6,
			"type":"SCALAR"
		},
		{
			"bufferView":15,
			"componentType":5126,
			"count":4,
			"max":[
				-0.017371615394949913,
				0.26712676882743835,
				-1.3237566947937012
			],
			"min":[
				-0.017371617257595062,
				0.10334862768650055,
				-1.3731024265289307
			],
			"type":"VEC3"
		},
		{
			"bufferView":16,
			"componentType":5126,
			"count":4,
			"type":"VEC3"
		},
		{
			"bufferView":17,
			"componentType":5126,
			"count":4,
			"type":"VEC2"
		},
		{
			"bufferView":18,
			"componentType":5126,
			"count":4,
			"type":"VEC4"
		},
		{
			"bufferView":19,
			"componentType":5123,
			"count":6,
			"type":"SCALAR"
		},
		{
			"bufferView":20,
			"componentType":5126,
			"count":20,
			"max":[
				-0.003258585697039962,
				0.27132782340049744,
				-1.3107472658157349
			],
			"min":[
				-0.04436192288994789,
				0.0888904333114624,
				-1.3265572786331177
			],
			"type":"VEC3"
		},
		{
			"bufferView":21,
			"componentType":5126,
			"count":20,
			"type":"VEC3"
		},
		{
			"bufferView":22,
			"componentType":5126,
			"count":20,
			"type":"VEC2"
		},
		{
			"bufferView":23,
			"componentType":5126,
			"count":20,
			"type":"VEC4"
		},
		{
			"bufferView":24,
			"componentType":5123,
			"count":24,
			"type":"SCALAR"
		},
		{
			"bufferView":25,
			"componentType":5126,
			"count":24,
			"max":[
				0.0014693161938339472,
				0.26915574073791504,
				-1.422797441482544
			],
			"min":[
				-0.03920504078269005,
				0.10157961398363113,
				-1.4367866516113281
			],
			"type":"VEC3"
		},
		{
			"bufferView":26,
			"componentType":5126,
			"count":24,
			"type":"VEC3"
		},
		{
			"bufferView":27,
			"componentType":5126,
			"count":24,
			"type":"VEC2"
		},
		{
			"bufferView":28,
			"componentType":5126,
			"count":24,
			"type":"VEC4"
		},
		{
			"bufferView":29,
			"componentType":5123,
			"count":24,
			"type":"SCALAR"
		},
		{
			"bufferView":30,
			"componentType":5126,
			"count":16,
			"max":[
				-0.000758957292418927,
				0.2844070494174957,
				-1.3124394416809082
			],
			"min":[
				-0.041777849197387695,
				0.2650952637195587,
				-1.4309054613113403
			],
			"type":"VEC3"
		},
		{
			"bufferView":31,
			"componentType":5126,
			"count":16,
			"type":"VEC3"
		},
		{
			"bufferView":32,
			"componentType":5126,
			"count":16,
			"type":"VEC2"
		},
		{
			"bufferView":33,
			"componentType":5126,
			"count":16,
			"type":"VEC4"
		},
		{
			"bufferView":34,
			"componentType":5123,
			"count":24,
			"type":"SCALAR"
		},
		{
			"bufferView":35,
			"componentType":5126,
			"count":24,
			"max":[
				0.015172168612480164,
				0.10466672480106354,
				-1.312682867050171
			],
			"min":[
				-0.04141820967197418,
				0.08619137853384018,
				-1.4373472929000854
			],
			"type":"VEC3"
		},
		{
			"bufferView":36,
			"componentType":5126,
			"count":24,
			"type":"VEC3"
		},
		{
			"bufferView":37,
			"componentType":5126,
			"count":24,
			"type":"VEC2"
		},
		{
			"bufferView":38,
			"componentType":5126,
			"count":24,
			"type":"VEC4"
		},
		{
			"bufferView":39,
			"componentType":5123,
			"count":24,
			"type":"SCALAR"
		},
		{
			"bufferView":40,
			"componentType":5126,
			"count":4,
			"max":[
				-0.0037006058264523745,
				0.27132779359817505,
				-1.3107472658157349
			],
			"min":[
				-0.044361915439367294,
				0.27054303884506226,
				-1.3245351314544678
			],
			"type":"VEC3"
		},
		{
			"bufferView":41,
			"componentType":5126,
			"count":4,
			"type":"VEC3"
		},
		{
			"bufferView":42,
			"componentType":5126,
			"count":4,
			"type":"VEC2"
		},
		{
			"bufferView":43,
			"componentType":5126,
			"count":4,
			"type":"VEC4"
		},
		{
			"bufferView":44,
			"componentType":5126,
			"count":4,
			"max":[
				-0.000758963287808001,
				0.2844070792198181,
				-1.4304372072219849
			],
			"min":[
				-0.041777849197387695,
				0.2650952637195587,
				-1.4309054613113403
			],
			"type":"VEC3"
		},
		{
			"bufferView":45,
			"componentType":5126,
			"count":4,
			"type":"VEC3"
		},
		{
			"bufferView":46,
			"componentType":5126,
			"count":4,
			"type":"VEC2"
		},
		{
			"bufferView":47,
			"componentType":5126,
			"count":4,
			"type":"VEC4"
		},
		{
			"bufferView":48,
			"componentType":5126,
			"count":6,
			"max":[
				0.014889107085764408,
				0.10466672480106354,
				-1.312682867050171
			],
			"min":[
				-0.04141821339726448,
				0.08619137853384018,
				-1.3133045434951782
			],
			"type":"VEC3"
		},
		{
			"bufferView":49,
			"componentType":5126,
			"count":6,
			"type":"VEC3"
		},
		{
			"bufferView":50,
			"componentType":5126,
			"count":6,
			"type":"VEC2"
		},
		{
			"bufferView":51,
			"componentType":5126,
			"count":6,
			"type":"VEC4"
		},
		{
			"bufferView":52,
			"componentType":5126,
			"count":4,
			"max":[
				0.015172160230576992,
				0.10288839042186737,
				-1.436918020248413
			],
			"min":[
				-0.02843298390507698,
				0.0894443541765213,
				-1.437347173690796
			],
			"type":"VEC3"
		},
		{
			"bufferView":53,
			"componentType":5126,
			"count":4,
			"type":"VEC3"
		},
		{
			"bufferView":54,
			"componentType":5126,
			"count":4,
			"type":"VEC2"
		},
		{
			"bufferView":55,
			"componentType":5126,
			"count":4,
			"type":"VEC4"
		},
		{
			"bufferView":56,
			"componentType":5126,
			"count":6,
			"max":[
				-0.007108905352652073,
				0.2772519290447235,
				-1.3124395608901978
			],
			"min":[
				-0.03534635528922081,
				0.2680245339870453,
				-1.3126590251922607
			],
			"type":"VEC3"
		},
		{
			"bufferView":57,
			"componentType":5126,
			"count":6,
			"type":"VEC3"
		},
		{
			"bufferView":58,
			"componentType":5126,
			"count":6,
			"type":"VEC2"
		},
		{
			"bufferView":59,
			"componentType":5126,
			"count":6,
			"type":"VEC4"
		},
		{
			"bufferView":60,
			"componentType":5126,
			"count":20,
			"max":[
				0.8333333333333334
			],
			"min":[
				0.041666666666666664
			],
			"type":"SCALAR"
		},
		{
			"bufferView":61,
			"componentType":5126,
			"count":20,
			"type":"VEC4"
		},
		{
			"bufferView":62,
			"componentType":5126,
			"count":20,
			"type":"VEC4"
		}
	],
	"bufferViews":[
		{
			"buffer":0,
			"byteLength":72,
			"byteOffset":0,
			"target":34962
		},
		{
			"buffer":0,
			"byteLength":72,
			"byteOffset":72,
			"target":34962
		},
		{
			"buffer":0,
			"byteLength":48,
			"byteOffset":144,
			"target":34962
		},
		{
			"buffer":0,
			"byteLength":96,
			"byteOffset":192,
			"target":34962
		},
		{
			"buffer":0,
			"byteLength":12,
			"byteOffset":288,
			"target":34963
		},
		{
			"buffer":0,
			"byteLength":72,
			"byteOffset":300,
			"target":34962
		},
		{
			"buffer":0,
			"byteLength":72,
			"byteOffset":372,
			"target":34962
		},
		{
			"buffer":0,
			"byteLength":48,
			"byteOffset":444,
			"target":34962
		},
		{
			"buffer":0,
			"byteLength":96,
			"byteOffset":492,
			"target":34962
		},
		{
			"buffer":0,
			"byteLength":12,
			"byteOffset":588,
			"target":34963
		},
		{
			"buffer":0,
			"byteLength":48,
			"byteOffset":600,
			"target":34962
		},
		{
			"buffer":0,
			"byteLength":48,
			"byteOffset":648,
			"target":34962
		},
		{
			"buffer":0,
			"byteLength":32,
			"byteOffset":696,
			"target":34962
		},
		{
			"buffer":0,
			"byteLength":64,
			"byteOffset":728,
			"target":34962
		},
		{
			"buffer":0,
			"byteLength":12,
			"byteOffset":792,
			"target":34963
		},
		{
			"buffer":0,
			"byteLength":48,
			"byteOffset":804,
			"target":34962
		},
		{
			"buffer":0,
			"byteLength":48,
			"byteOffset":852,
			"target":34962
		},
		{
			"buffer":0,
			"byteLength":32,
			"byteOffset":900,
			"target":34962
		},
		{
			"buffer":0,
			"byteLength":64,
			"byteOffset":932,
			"target":34962
		},
		{
			"buffer":0,
			"byteLength":12,
			"byteOffset":996,
			"target":34963
		},
		{
			"buffer":0,
			"byteLength":240,
			"byteOffset":1008,
			"target":34962
		},
		{
			"buffer":0,
			"byteLength":240,
			"byteOffset":1248,
			"target":34962
		},
		{
			"buffer":0,
			"byteLength":160,
			"byteOffset":1488,
			"target":34962
		},
		{
			"buffer":0,
			"byteLength":320,
			"byteOffset":1648,
			"target":34962
		},
		{
			"buffer":0,
			"byteLength":48,
			"byteOffset":1968,
			"target":34963
		},
		{
			"buffer":0,
			"byteLength":288,
			"byteOffset":2016,
			"target":34962
		},
		{
			"buffer":0,
			"byteLength":288,
			"byteOffset":2304,
			"target":34962
		},
		{
			"buffer":0,
			"byteLength":192,
			"byteOffset":2592,
			"target":34962
		},
		{
			"buffer":0,
			"byteLength":384,
			"byteOffset":2784,
			"target":34962
		},
		{
			"buffer":0,
			"byteLength":48,
			"byteOffset":3168,
			"target":34963
		},
		{
			"buffer":0,
			"byteLength":192,
			"byteOffset":3216,
			"target":34962
		},
		{
			"buffer":0,
			"byteLength":192,
			"byteOffset":3408,
			"target":34962
		},
		{
			"buffer":0,
			"byteLength":128,
			"byteOffset":3600,
			"target":34962
		},
		{
			"buffer":0,
			"byteLength":256,
			"byteOffset":3728,
			"target":34962
		},
		{
			"buffer":0,
			"byteLength":48,
			"byteOffset":3984,
			"target":34963
		},
		{
			"buffer":0,
			"byteLength":288,
			"byteOffset":4032,
			"target":34962
		},
		{
			"buffer":0,
			"byteLength":288,
			"byteOffset":4320,
			"target":34962
		},
		{
			"buffer":0,
			"byteLength":192,
			"byteOffset":4608,
			"target":34962
		},
		{
			"buffer":0,
			"byteLength":384,
			"byteOffset":4800,
			"target":34962
		},
		{
			"buffer":0,
			"byteLength":48,
			"byteOffset":5184,
			"target":34963
		},
		{
			"buffer":0,
			"byteLength":48,
			"byteOffset":5232,
			"target":34962
		},
		{
			"buffer":0,
			"byteLength":48,
			"byteOffset":5280,
			"target":34962
		},
		{
			"buffer":0,
			"byteLength":32,
			"byteOffset":5328,
			"target":34962
		},
		{
			"buffer":0,
			"byteLength":64,
			"byteOffset":5360,
			"target":34962
		},
		{
			"buffer":0,
			"byteLength":48,
			"byteOffset":5424,
			"target":34962
		},
		{
			"buffer":0,
			"byteLength":48,
			"byteOffset":5472,
			"target":34962
		},
		{
			"buffer":0,
			"byteLength":32,
			"byteOffset":5520,
			"target":34962
		},
		{
			"buffer":0,
			"byteLength":64,
			"byteOffset":5552,
			"target":34962
		},
		{
			"buffer":0,
			"byteLength":72,
			"byteOffset":5616,
			"target":34962
		},
		{
			"buffer":0,
			"byteLength":72,
			"byteOffset":5688,
			"target":34962
		},
		{
			"buffer":0,
			"byteLength":48,
			"byteOffset":5760,
			"target":34962
		},
		{
			"buffer":0,
			"byteLength":96,
			"byteOffset":5808,
			"target":34962
		},
		{
			"buffer":0,
			"byteLength":48,
			"byteOffset":5904,
			"target":34962
		},
		{
			"buffer":0,
			"byteLength":48,
			"byteOffset":5952,
			"target":34962
		},
		{
			"buffer":0,
			"byteLength":32,
			"byteOffset":6000,
			"target":34962
		},
		{
			"buffer":0,
			"byteLength":64,
			"byteOffset":6032,
			"target":34962
		},
		{
			"buffer":0,
			"byteLength":72,
			"byteOffset":6096,
			"target":34962
		},
		{
			"buffer":0,
			"byteLength":72,
			"byteOffset":6168,
			"target":34962
		},
		{
			"buffer":0,
			"byteLength":48,
			"byteOffset":6240,
			"target":34962
		},
		{
			"buffer":0,
			"byteLength":96,
			"byteOffset":6288,
			"target":34962
		},
		{
			"buffer":0,
			"byteLength":80,
			"byteOffset":6384
		},
		{
			"buffer":0,
			"byteLength":320,
			"byteOffset":6464
		},
		{
			"buffer":0,
			"byteLength":320,
			"byteOffset":6784
		}
	],
	"buffers":[
		{
			"byteLength":7104,
			"uri":"WindowClou-833189f6dd7c9461d1588b97945bb812.bin"
		}
	]
}
